#usda 1.0
(
    defaultPrim = "World"
    endTimeCode = 20
    metersPerUnit = 1000
    startTimeCode = 1
    timeCodesPerSecond = 4
    upAxis = "Z"
)

def Xform "World" (
    kind = "assembly"
    variants = {
        string cloud_representation = "usdvol_density"
        string shadow_mode = "renderer_volume_shadow"
    }
    prepend variantSets = ["cloud_representation", "shadow_mode"]
)
{
    def Scope "Materials" (
        kind = "group"
    )
    {
        def Material "Ocean_Albedo006"
        {
            token outputs:surface.connect = </World/Materials/Ocean_Albedo006/PreviewSurface.outputs:surface>

            def Shader "PreviewSurface"
            {
                uniform token info:id = "UsdPreviewSurface"
                color3f inputs:diffuseColor = (0.02, 0.14, 0.26)
                float inputs:metallic = 0
                float inputs:roughness = 0.48
                color3f inputs:specularColor = (0.14, 0.14, 0.14)
                token outputs:surface
            }
        }

        def Material "MarginalIce_Albedo050"
        {
            token outputs:surface.connect = </World/Materials/MarginalIce_Albedo050/PreviewSurface.outputs:surface>

            def Shader "PreviewSurface"
            {
                uniform token info:id = "UsdPreviewSurface"
                color3f inputs:diffuseColor = (0.42, 0.58, 0.62)
                float inputs:metallic = 0
                float inputs:roughness = 0.74
                color3f inputs:specularColor = (0.04, 0.04, 0.04)
                token outputs:surface
            }
        }

        def Material "SeaIce_Albedo080"
        {
            token outputs:surface.connect = </World/Materials/SeaIce_Albedo080/PreviewSurface.outputs:surface>

            def Shader "PreviewSurface"
            {
                uniform token info:id = "UsdPreviewSurface"
                color3f inputs:diffuseColor = (0.72, 0.8, 0.78)
                float inputs:metallic = 0
                float inputs:roughness = 0.82
                color3f inputs:specularColor = (0.03, 0.03, 0.03)
                token outputs:surface
            }
        }

        def Material "Snow_Albedo080"
        {
            token outputs:surface.connect = </World/Materials/Snow_Albedo080/PreviewSurface.outputs:surface>

            def Shader "PreviewSurface"
            {
                uniform token info:id = "UsdPreviewSurface"
                color3f inputs:diffuseColor = (0.82, 0.86, 0.84)
                float inputs:metallic = 0
                float inputs:roughness = 0.86
                color3f inputs:specularColor = (0.02, 0.02, 0.02)
                token outputs:surface
            }
        }

        def Material "YoungIce_Albedo055"
        {
            token outputs:surface.connect = </World/Materials/YoungIce_Albedo055/PreviewSurface.outputs:surface>

            def Shader "PreviewSurface"
            {
                uniform token info:id = "UsdPreviewSurface"
                color3f inputs:diffuseColor = (0.38, 0.58, 0.64)
                float inputs:metallic = 0
                float inputs:roughness = 0.76
                color3f inputs:specularColor = (0.04, 0.04, 0.04)
                token outputs:surface
            }
        }

        def Material "MeltPond_Albedo035"
        {
            token outputs:surface.connect = </World/Materials/MeltPond_Albedo035/PreviewSurface.outputs:surface>

            def Shader "PreviewSurface"
            {
                uniform token info:id = "UsdPreviewSurface"
                color3f inputs:diffuseColor = (0.08, 0.36, 0.52)
                float inputs:metallic = 0
                float inputs:roughness = 0.46
                color3f inputs:specularColor = (0.12, 0.12, 0.12)
                token outputs:surface
            }
        }

        def Material "IceLead_DarkWater"
        {
            token outputs:surface.connect = </World/Materials/IceLead_DarkWater/PreviewSurface.outputs:surface>

            def Shader "PreviewSurface"
            {
                uniform token info:id = "UsdPreviewSurface"
                color3f inputs:diffuseColor = (0.012, 0.07, 0.12)
                float inputs:metallic = 0
                float inputs:roughness = 0.52
                color3f inputs:specularColor = (0.16, 0.16, 0.16)
                token outputs:surface
            }
        }

        def Material "DomainFrame"
        {
            token outputs:surface.connect = </World/Materials/DomainFrame/PreviewSurface.outputs:surface>

            def Shader "PreviewSurface"
            {
                uniform token info:id = "UsdPreviewSurface"
                color3f inputs:diffuseColor = (0.42, 0.58, 0.66)
                float inputs:metallic = 0
                float inputs:roughness = 0.85
                color3f inputs:specularColor = (0.02, 0.02, 0.02)
                token outputs:surface
            }
        }
    }

    def Xform "Surfaces" (
        kind = "group"
    )
    {
        def Mesh "Ocean_DarkLowAlbedo"
        {
            uniform bool doubleSided = 1
            int[] faceVertexCounts = [4]
            int[] faceVertexIndices = [0, 1, 2, 3]
            rel material:binding = </World/Materials/Ocean_Albedo006>
            uniform token orientation = "rightHanded"
            point3f[] points = [(0, 0, 0), (50, 0, 0), (50, 20, 0), (0, 20, 0)]
            color3f[] primvars:displayColor = [(0.02, 0.14, 0.26)]
        }

        def Mesh "MarginalIce_Albedo050"
        {
            uniform bool doubleSided = 1
            int[] faceVertexCounts = [4]
            int[] faceVertexIndices = [0, 1, 2, 3]
            rel material:binding = </World/Materials/MarginalIce_Albedo050>
            uniform token orientation = "rightHanded"
            point3f[] points = [(0, 20, 0.025), (50, 20, 0.025), (50, 30, 0.025), (0, 30, 0.025)]
            color3f[] primvars:displayColor = [(0.42, 0.58, 0.62)]
        }

        def Mesh "SeaIce_Albedo080"
        {
            uniform bool doubleSided = 1
            int[] faceVertexCounts = [4]
            int[] faceVertexIndices = [0, 1, 2, 3]
            rel material:binding = </World/Materials/SeaIce_Albedo080>
            uniform token orientation = "rightHanded"
            point3f[] points = [(0, 30, 0.04), (50, 30, 0.04), (50, 50, 0.04), (0, 50, 0.04)]
            color3f[] primvars:displayColor = [(0.72, 0.8, 0.78)]
        }

        def Mesh "SnowBand_Albedo080"
        {
            uniform bool doubleSided = 1
            int[] faceVertexCounts = [4]
            int[] faceVertexIndices = [0, 1, 2, 3]
            rel material:binding = </World/Materials/Snow_Albedo080>
            uniform token orientation = "rightHanded"
            point3f[] points = [(4, 39, 0.08), (47, 39, 0.08), (47, 48, 0.08), (4, 48, 0.08)]
            color3f[] primvars:displayColor = [(0.82, 0.86, 0.84)]
        }

        def Mesh "Floe_A_Albedo055"
        {
            uniform bool doubleSided = 1
            int[] faceVertexCounts = [3, 3, 3, 3, 3, 3]
            int[] faceVertexIndices = [0, 1, 2, 0, 2, 3, 0, 3, 4, 0, 4, 5, 0, 5, 6, 0, 6, 1]
            rel material:binding = </World/Materials/YoungIce_Albedo055>
            uniform token orientation = "rightHanded"
            point3f[] points = [(10.133333, 15.033334, 0.08), (4.8, 13.8, 0.08), (7.5, 17.8, 0.08), (13.8, 18.5, 0.08), (15.5, 15.6, 0.08), (12.2, 12.5, 0.08), (7, 12, 0.08)]
            color3f[] primvars:displayColor = [(0.38, 0.58, 0.64)]
        }

        def Mesh "Floe_B_Albedo052"
        {
            uniform bool doubleSided = 1
            int[] faceVertexCounts = [3, 3, 3, 3, 3, 3]
            int[] faceVertexIndices = [0, 1, 2, 0, 2, 3, 0, 3, 4, 0, 4, 5, 0, 5, 6, 0, 6, 1]
            rel material:binding = </World/Materials/YoungIce_Albedo055>
            uniform token orientation = "rightHanded"
            point3f[] points = [(24.016666, 11.033334, 0.08), (18.2, 10.2, 0.08), (21.6, 14.7, 0.08), (28.6, 14, 0.08), (30, 10.5, 0.08), (25.2, 8.2, 0.08), (20.5, 8.6, 0.08)]
            color3f[] primvars:displayColor = [(0.36, 0.55, 0.62)]
        }

        def Mesh "Floe_C_Albedo058"
        {
            uniform bool doubleSided = 1
            int[] faceVertexCounts = [3, 3, 3, 3, 3, 3]
            int[] faceVertexIndices = [0, 1, 2, 0, 2, 3, 0, 3, 4, 0, 4, 5, 0, 5, 6, 0, 6, 1]
            rel material:binding = </World/Materials/YoungIce_Albedo055>
            uniform token orientation = "rightHanded"
            point3f[] points = [(40.633335, 15.483334, 0.08), (34, 15.2, 0.08), (38, 19.5, 0.08), (46.5, 18, 0.08), (47.8, 14.4, 0.08), (41.5, 12.6, 0.08), (36, 13.2, 0.08)]
            color3f[] primvars:displayColor = [(0.4, 0.6, 0.66)]
        }

        def Mesh "YoungIce_Albedo055"
        {
            uniform bool doubleSided = 1
            int[] faceVertexCounts = [3, 3, 3, 3, 3, 3]
            int[] faceVertexIndices = [0, 1, 2, 0, 2, 3, 0, 3, 4, 0, 4, 5, 0, 5, 6, 0, 6, 1]
            rel material:binding = </World/Materials/YoungIce_Albedo055>
            uniform token orientation = "rightHanded"
            point3f[] points = [(37.916668, 30.033333, 0.08), (29.5, 24.5, 0.08), (47.5, 25, 0.08), (48, 33.2, 0.08), (42, 35, 0.08), (32, 33.5, 0.08), (28.5, 29, 0.08)]
            color3f[] primvars:displayColor = [(0.38, 0.58, 0.64)]
        }

        def Mesh "MeltPond_A"
        {
            uniform bool doubleSided = 1
            int[] faceVertexCounts = [3, 3, 3, 3, 3, 3, 3, 3, 3, 3, 3, 3, 3, 3, 3, 3, 3, 3, 3, 3, 3, 3, 3, 3, 3, 3, 3, 3, 3, 3, 3, 3, 3, 3, 3, 3, 3, 3, 3, 3, 3, 3, 3, 3, 3, 3, 3, 3]
            int[] faceVertexIndices = [0, 1, 2, 0, 2, 3, 0, 3, 4, 0, 4, 5, 0, 5, 6, 0, 6, 7, 0, 7, 8, 0, 8, 9, 0, 9, 10, 0, 10, 11, 0, 11, 12, 0, 12, 13, 0, 13, 14, 0, 14, 15, 0, 15, 16, 0, 16, 17, 0, 17, 18, 0, 18, 19, 0, 19, 20, 0, 20, 21, 0, 21, 22, 0, 22, 23, 0, 23, 24, 0, 24, 25, 0, 25, 26, 0, 26, 27, 0, 27, 28, 0, 28, 29, 0, 29, 30, 0, 30, 31, 0, 31, 32, 0, 32, 33, 0, 33, 34, 0, 34, 35, 0, 35, 36, 0, 36, 37, 0, 37, 38, 0, 38, 39, 0, 39, 40, 0, 40, 41, 0, 41, 42, 0, 42, 43, 0, 43, 44, 0, 44, 45, 0, 45, 46, 0, 46, 47, 0, 47, 48, 0, 48, 1]
            rel material:binding = </World/Materials/MeltPond_Albedo035>
            uniform token orientation = "rightHanded"
            point3f[] points = [(16, 33, 0.11), (21.4, 33, 0.11), (21.353802, 33.28716, 0.11), (21.216, 33.5694, 0.11), (20.988949, 33.841904, 0.11), (20.676537, 34.1, 0.11), (20.284107, 34.339275, 0.11), (19.818377, 34.555634, 0.11), (19.287312, 34.745377, 0.11), (18.7, 34.905254, 0.11), (18.06649, 35.032536, 0.11), (17.397623, 35.12504, 0.11), (16.704842, 35.18118, 0.11), (16, 35.2, 0.11), (15.295158, 35.18118, 0.11), (14.602377, 35.12504, 0.11), (13.93351, 35.032536, 0.11), (13.3, 34.905254, 0.11), (12.712688, 34.745377, 0.11), (12.181623, 34.555634, 0.11), (11.715892, 34.339275, 0.11), (11.3234625, 34.1, 0.11), (11.01105, 33.841904, 0.11), (10.784, 33.5694, 0.11), (10.646197, 33.28716, 0.11), (10.6, 33, 0.11), (10.646197, 32.71284, 0.11), (10.784, 32.4306, 0.11), (11.01105, 32.158096, 0.11), (11.3234625, 31.9, 0.11), (11.715892, 31.660725, 0.11), (12.181623, 31.444365, 0.11), (12.712688, 31.254623, 0.11), (13.3, 31.094744, 0.11), (13.93351, 30.967464, 0.11), (14.602377, 30.874964, 0.11), (15.295158, 30.81882, 0.11), (16, 30.8, 0.11), (16.704842, 30.81882, 0.11), (17.397623, 30.874964, 0.11), (18.06649, 30.967464, 0.11), (18.7, 31.094744, 0.11), (19.287312, 31.254623, 0.11), (19.818377, 31.444365, 0.11), (20.284107, 31.660725, 0.11), (20.676537, 31.9, 0.11), (20.988949, 32.158096, 0.11), (21.216, 32.4306, 0.11), (21.353802, 32.71284, 0.11)]
            color3f[] primvars:displayColor = [(0.08, 0.36, 0.52)]
        }

        def Mesh "MeltPond_B"
        {
            uniform bool doubleSided = 1
            int[] faceVertexCounts = [3, 3, 3, 3, 3, 3, 3, 3, 3, 3, 3, 3, 3, 3, 3, 3, 3, 3, 3, 3, 3, 3, 3, 3, 3, 3, 3, 3, 3, 3, 3, 3, 3, 3, 3, 3, 3, 3, 3, 3, 3, 3, 3, 3, 3, 3, 3, 3]
            int[] faceVertexIndices = [0, 1, 2, 0, 2, 3, 0, 3, 4, 0, 4, 5, 0, 5, 6, 0, 6, 7, 0, 7, 8, 0, 8, 9, 0, 9, 10, 0, 10, 11, 0, 11, 12, 0, 12, 13, 0, 13, 14, 0, 14, 15, 0, 15, 16, 0, 16, 17, 0, 17, 18, 0, 18, 19, 0, 19, 20, 0, 20, 21, 0, 21, 22, 0, 22, 23, 0, 23, 24, 0, 24, 25, 0, 25, 26, 0, 26, 27, 0, 27, 28, 0, 28, 29, 0, 29, 30, 0, 30, 31, 0, 31, 32, 0, 32, 33, 0, 33, 34, 0, 34, 35, 0, 35, 36, 0, 36, 37, 0, 37, 38, 0, 38, 39, 0, 39, 40, 0, 40, 41, 0, 41, 42, 0, 42, 43, 0, 43, 44, 0, 44, 45, 0, 45, 46, 0, 46, 47, 0, 47, 48, 0, 48, 1]
            rel material:binding = </World/Materials/MeltPond_Albedo035>
            uniform token orientation = "rightHanded"
            point3f[] points = [(38, 41, 0.11), (41.8, 41, 0.11), (41.76749, 41.221893, 0.11), (41.670517, 41.43999, 0.11), (41.510742, 41.650562, 0.11), (41.290897, 41.85, 0.11), (41.014744, 42.034893, 0.11), (40.687004, 42.20208, 0.11), (40.313293, 42.3487, 0.11), (39.9, 42.472244, 0.11), (39.454197, 42.570595, 0.11), (38.983513, 42.642075, 0.11), (38.496, 42.685455, 0.11), (38, 42.7, 0.11), (37.504, 42.685455, 0.11), (37.016487, 42.642075, 0.11), (36.545803, 42.570595, 0.11), (36.1, 42.472244, 0.11), (35.686707, 42.3487, 0.11), (35.312996, 42.20208, 0.11), (34.985256, 42.034893, 0.11), (34.709103, 41.85, 0.11), (34.489258, 41.650562, 0.11), (34.329483, 41.43999, 0.11), (34.23251, 41.221893, 0.11), (34.2, 41, 0.11), (34.23251, 40.778107, 0.11), (34.329483, 40.56001, 0.11), (34.489258, 40.349438, 0.11), (34.709103, 40.15, 0.11), (34.985256, 39.965107, 0.11), (35.312996, 39.79792, 0.11), (35.686707, 39.6513, 0.11), (36.1, 39.527756, 0.11), (36.545803, 39.429405, 0.11), (37.016487, 39.357925, 0.11), (37.504, 39.314545, 0.11), (38, 39.3, 0.11), (38.496, 39.314545, 0.11), (38.983513, 39.357925, 0.11), (39.454197, 39.429405, 0.11), (39.9, 39.527756, 0.11), (40.313293, 39.6513, 0.11), (40.687004, 39.79792, 0.11), (41.014744, 39.965107, 0.11), (41.290897, 40.15, 0.11), (41.510742, 40.349438, 0.11), (41.670517, 40.56001, 0.11), (41.76749, 40.778107, 0.11)]
            color3f[] primvars:displayColor = [(0.08, 0.36, 0.52)]
        }

        def Mesh "MeltPond_C"
        {
            uniform bool doubleSided = 1
            int[] faceVertexCounts = [3, 3, 3, 3, 3, 3, 3, 3, 3, 3, 3, 3, 3, 3, 3, 3, 3, 3, 3, 3, 3, 3, 3, 3, 3, 3, 3, 3, 3, 3, 3, 3, 3, 3, 3, 3, 3, 3, 3, 3, 3, 3, 3, 3, 3, 3, 3, 3]
            int[] faceVertexIndices = [0, 1, 2, 0, 2, 3, 0, 3, 4, 0, 4, 5, 0, 5, 6, 0, 6, 7, 0, 7, 8, 0, 8, 9, 0, 9, 10, 0, 10, 11, 0, 11, 12, 0, 12, 13, 0, 13, 14, 0, 14, 15, 0, 15, 16, 0, 16, 17, 0, 17, 18, 0, 18, 19, 0, 19, 20, 0, 20, 21, 0, 21, 22, 0, 22, 23, 0, 23, 24, 0, 24, 25, 0, 25, 26, 0, 26, 27, 0, 27, 28, 0, 28, 29, 0, 29, 30, 0, 30, 31, 0, 31, 32, 0, 32, 33, 0, 33, 34, 0, 34, 35, 0, 35, 36, 0, 36, 37, 0, 37, 38, 0, 38, 39, 0, 39, 40, 0, 40, 41, 0, 41, 42, 0, 42, 43, 0, 43, 44, 0, 44, 45, 0, 45, 46, 0, 46, 47, 0, 47, 48, 0, 48, 1]
            rel material:binding = </World/Materials/MeltPond_Albedo035>
            uniform token orientation = "rightHanded"
            point3f[] points = [(26, 28.5, 0.11), (28.8, 28.5, 0.11), (28.776045, 28.656631, 0.11), (28.704592, 28.810583, 0.11), (28.586863, 28.95922, 0.11), (28.424871, 29.1, 0.11), (28.22139, 29.230515, 0.11), (27.979898, 29.348528, 0.11), (27.704533, 29.452024, 0.11), (27.4, 29.53923, 0.11), (27.071514, 29.608656, 0.11), (26.724693, 29.659111, 0.11), (26.365473, 29.689734, 0.11), (26, 29.7, 0.11), (25.634527, 29.689734, 0.11), (25.275307, 29.659111, 0.11), (24.928486, 29.608656, 0.11), (24.6, 29.53923, 0.11), (24.295467, 29.452024, 0.11), (24.020102, 29.348528, 0.11), (23.77861, 29.230515, 0.11), (23.575129, 29.1, 0.11), (23.413137, 28.95922, 0.11), (23.295408, 28.810583, 0.11), (23.223955, 28.656631, 0.11), (23.2, 28.5, 0.11), (23.223955, 28.343369, 0.11), (23.295408, 28.189417, 0.11), (23.413137, 28.04078, 0.11), (23.575129, 27.9, 0.11), (23.77861, 27.769485, 0.11), (24.020102, 27.651472, 0.11), (24.295467, 27.547976, 0.11), (24.6, 27.46077, 0.11), (24.928486, 27.391344, 0.11), (25.275307, 27.340889, 0.11), (25.634527, 27.310266, 0.11), (26, 27.3, 0.11), (26.365473, 27.310266, 0.11), (26.724693, 27.340889, 0.11), (27.071514, 27.391344, 0.11), (27.4, 27.46077, 0.11), (27.704533, 27.547976, 0.11), (27.979898, 27.651472, 0.11), (28.22139, 27.769485, 0.11), (28.424871, 27.9, 0.11), (28.586863, 28.04078, 0.11), (28.704592, 28.189417, 0.11), (28.776045, 28.343369, 0.11)]
            color3f[] primvars:displayColor = [(0.08, 0.36, 0.52)]
        }

        def BasisCurves "IceLead_DarkWater"
        {
            int[] curveVertexCounts = [5]
            rel material:binding = </World/Materials/IceLead_DarkWater>
            point3f[] points = [(0, 29.2, 0.13), (8, 28.6, 0.13), (18, 30.1, 0.13), (31, 29.4, 0.13), (50, 30.4, 0.13)]
            color3f[] primvars:displayColor = [(0.012, 0.07, 0.12)]
            uniform token type = "linear"
            float[] widths = [0.35, 0.35, 0.35, 0.35, 0.35]
        }
    }

    def Xform "Atmosphere" (
        kind = "group"
    )
    {
        def Xform "DomainFrame"
        {
            def BasisCurves "Edge_00"
            {
                int[] curveVertexCounts = [2]
                rel material:binding = </World/Materials/DomainFrame>
                point3f[] points = [(0, 0, 0), (50, 0, 0)]
                color3f[] primvars:displayColor = [(0.42, 0.58, 0.66)]
                uniform token type = "linear"
                float[] widths = [0.04, 0.04]
            }

            def BasisCurves "Edge_01"
            {
                int[] curveVertexCounts = [2]
                rel material:binding = </World/Materials/DomainFrame>
                point3f[] points = [(50, 0, 0), (50, 50, 0)]
                color3f[] primvars:displayColor = [(0.42, 0.58, 0.66)]
                uniform token type = "linear"
                float[] widths = [0.04, 0.04]
            }

            def BasisCurves "Edge_02"
            {
                int[] curveVertexCounts = [2]
                rel material:binding = </World/Materials/DomainFrame>
                point3f[] points = [(50, 50, 0), (0, 50, 0)]
                color3f[] primvars:displayColor = [(0.42, 0.58, 0.66)]
                uniform token type = "linear"
                float[] widths = [0.04, 0.04]
            }

            def BasisCurves "Edge_03"
            {
                int[] curveVertexCounts = [2]
                rel material:binding = </World/Materials/DomainFrame>
                point3f[] points = [(0, 50, 0), (0, 0, 0)]
                color3f[] primvars:displayColor = [(0.42, 0.58, 0.66)]
                uniform token type = "linear"
                float[] widths = [0.04, 0.04]
            }

            def BasisCurves "Edge_04"
            {
                int[] curveVertexCounts = [2]
                rel material:binding = </World/Materials/DomainFrame>
                point3f[] points = [(0, 0, 25), (50, 0, 25)]
                color3f[] primvars:displayColor = [(0.42, 0.58, 0.66)]
                uniform token type = "linear"
                float[] widths = [0.04, 0.04]
            }

            def BasisCurves "Edge_05"
            {
                int[] curveVertexCounts = [2]
                rel material:binding = </World/Materials/DomainFrame>
                point3f[] points = [(50, 0, 25), (50, 50, 25)]
                color3f[] primvars:displayColor = [(0.42, 0.58, 0.66)]
                uniform token type = "linear"
                float[] widths = [0.04, 0.04]
            }

            def BasisCurves "Edge_06"
            {
                int[] curveVertexCounts = [2]
                rel material:binding = </World/Materials/DomainFrame>
                point3f[] points = [(50, 50, 25), (0, 50, 25)]
                color3f[] primvars:displayColor = [(0.42, 0.58, 0.66)]
                uniform token type = "linear"
                float[] widths = [0.04, 0.04]
            }

            def BasisCurves "Edge_07"
            {
                int[] curveVertexCounts = [2]
                rel material:binding = </World/Materials/DomainFrame>
                point3f[] points = [(0, 50, 25), (0, 0, 25)]
                color3f[] primvars:displayColor = [(0.42, 0.58, 0.66)]
                uniform token type = "linear"
                float[] widths = [0.04, 0.04]
            }

            def BasisCurves "Edge_08"
            {
                int[] curveVertexCounts = [2]
                rel material:binding = </World/Materials/DomainFrame>
                point3f[] points = [(0, 0, 0), (0, 0, 25)]
                color3f[] primvars:displayColor = [(0.42, 0.58, 0.66)]
                uniform token type = "linear"
                float[] widths = [0.04, 0.04]
            }

            def BasisCurves "Edge_09"
            {
                int[] curveVertexCounts = [2]
                rel material:binding = </World/Materials/DomainFrame>
                point3f[] points = [(50, 0, 0), (50, 0, 25)]
                color3f[] primvars:displayColor = [(0.42, 0.58, 0.66)]
                uniform token type = "linear"
                float[] widths = [0.04, 0.04]
            }

            def BasisCurves "Edge_10"
            {
                int[] curveVertexCounts = [2]
                rel material:binding = </World/Materials/DomainFrame>
                point3f[] points = [(50, 50, 0), (50, 50, 25)]
                color3f[] primvars:displayColor = [(0.42, 0.58, 0.66)]
                uniform token type = "linear"
                float[] widths = [0.04, 0.04]
            }

            def BasisCurves "Edge_11"
            {
                int[] curveVertexCounts = [2]
                rel material:binding = </World/Materials/DomainFrame>
                point3f[] points = [(0, 50, 0), (0, 50, 25)]
                color3f[] primvars:displayColor = [(0.42, 0.58, 0.66)]
                uniform token type = "linear"
                float[] widths = [0.04, 0.04]
            }
        }
    }

    def Xform "CloudVolume" (
        kind = "component"
    )
    {
        double3 xformOp:translate.timeSamples = {
            1: (12, 27.5, 10.5),
            5: (16.842105865478516, 28.728425979614258, 10.714974403381348),
            10: (22.894737243652344, 29.4931697845459, 10.848804473876953),
            15: (28.947368621826172, 28.971446990966797, 10.757503509521484),
            20: (35, 27.5, 10.5),
        }
        uniform token[] xformOpOrder = ["xformOp:translate"]

        def Volume "Volume"
        {
            float3[] extent = [(-10, -6, -3), (10, 6, 5)]
            custom rel field:density = </World/CloudVolume/Fields/Density>
        }

        def "Fields"
        {
            def OpenVDBAsset "Density"
            {
                token fieldClass = "fogVolume"
                token fieldDataType = "float"
                token fieldName = "density"
                asset filePath = @vdbs/cloud_density.vdb@
            }
        }

        def Points "PointsPreview"
        {
            point3f[] points = [(-7.1493793, 1.3232162, 3.3452635), (-3.6655998, -1.3455812, 0.87145185), (4.572697, 1.8425539, -1.6559768), (9.569421, 1.5467359, 3.5885468), (0.67246735, 0.6141906, 0.9702876), (0.08776566, 1.0393268, 0.5836068), (-7.944125, -0.5755139, 0.79863894), (-1.7582428, 5.8993826, 3.77415), (-1.9109285, 2.6369262, -0.46576032), (-7.457326, 3.233697, 0.11908119), (4.5794644, 0.009407925, 3.2616315), (-2.1604252, 0.9742192, 1.5767294), (4.92392, 1.8013568, 3.5844574), (0.072136775, 1.9067757, -1.8406396), (-6.230103, -1.4608866, -1.0558935), (-2.1137571, -1.6080481, 0.3245337), (8.814212, -0.9768809, -0.3751291), (-7.2777057, 3.419089, 1.651014), (1.163299, 2.968302, 2.4361382), (2.6883366, 0.8015252, 1.2964088), (-4.6607, 2.9147089, 3.5548081), (2.8582764, -1.9080592, -1.2751881), (0.013725919, 2.613954, 2.2365463), (8.935268, -1.7368889, 1.4212053), (9.523048, 1.4172825, -0.7695568), (3.450675, -4.1456256, -0.43938792), (4.339763, 1.2009132, 1.156198), (-1.8076854, 5.643455, -0.97612673), (-2.3170803, 0.49356952, -1.1424774), (4.0757904, 2.6564791, 3.1456413), (-2.7596242, -4.2776465, -1.3579168), (7.0750294, -2.686028, 3.576626), (-8.493733, 0.57119715, -0.28657305), (-8.227348, -1.4710755, 3.2011752), (2.5685143, -5.528569, -0.08899542), (4.4537835, -2.8065078, 2.543192), (-4.373346, -2.622707, 1.2960733), (-6.381619, -4.5933185, 3.078751), (-0.71547705, -4.553023, 0.44313496), (0.0022792895, -1.0355829, 1.4077116), (-2.249117, -4.0099816, 1.4870195), (5.472803, 0.23368335, 1.8688219), (6.739818, -2.7215047, 0.4515949), (-2.2462828, -2.3086197, 0.38537169), (4.5268803, -2.5419915, 1.2986431), (-9.147038, 0.121848874, 2.8923218), (-0.6891361, 2.432627, 0.5038967), (-6.7829323, 2.4420211, 0.7632522), (6.683843, -0.45456696, -1.7519248), (8.13362, 1.3017812, 1.2234918), (3.6596546, 0.2649831, 0.5289945), (0.29662168, 2.2449517, -1.9183446), (-5.541689, -3.5391855, 2.6443095), (2.1571805, 3.9280896, -1.1278834), (-0.9446848, -2.475133, -0.5658704), (-7.774223, -0.6018655, 2.3372412), (2.4553022, -0.9845225, 3.395623), (-7.5745006, 1.3658088, 3.259792), (6.480772, -3.6828623, 3.465548), (2.3759131, 4.8946395, 2.7100732), (2.1684399, 5.541358, 3.6829588), (1.4347672, -3.2852898, 3.2599382), (5.762104, 1.979843, 1.1018115), (8.852285, 0.9583206, -1.8156588), (-4.5186663, 4.584104, -1.3569988), (-1.5152051, -5.4233427, 1.9362292), (2.7845714, -0.55268854, -0.871515), (-1.0593919, -4.753454, 0.93669635), (-2.3340034, 3.4296772, 2.8715634), (5.8228693, -4.760017, 0.94535565), (-6.913745, -0.95200527, 1.4313664), (-6.297143, -0.38154572, 2.6064115), (-0.93019754, -1.4355876, 1.0322926), (4.5994287, -1.440829, 0.638969), (3.8080385, -5.2153215, 0.6591963), (-7.0985007, -3.8948438, -1.4232312), (1.6399744, 2.6857233, 1.9222043), (-2.3640924, -1.3281047, 2.1853626), (-0.015468347, 2.6679866, 0.9821113), (-6.2249384, 2.2597718, -1.241629), (-4.692638, -3.3374808, 2.907549), (0.9359479, 5.1334605, 2.6630495), (-3.814392, 5.2897787, -0.89113414), (3.2598937, 2.1887949, 2.159459), (3.2054124, -3.3881884, 2.539615), (-0.52759403, -0.73423725, -0.9943956), (3.3303747, -0.4023258, 0.8340855), (-1.7094702, -2.3983824, -1.7766873), (-6.800288, -1.3732679, 1.212453), (2.617324, 5.270823, 3.7418082), (9.024906, 2.2208557, 0.5724245), (-7.024224, 0.8877151, 0.3804875), (-2.782747, -5.2541165, -1.1123849), (-3.658174, 1.485573, -1.20954), (7.0118513, -3.340904, 2.0280292), (-6.3909974, 2.6232882, 0.82573205), (-0.49547115, 5.719999, 2.2666094), (-7.8525276, 3.174466, 3.079049), (0.60858196, -3.804406, 2.135806), (-1.0096371, 0.120139964, -0.06617689), (1.0903965, 5.794851, 1.7965614), (-6.6146183, -1.8546498, 0.13756445), (-2.6317177, -4.992924, 3.6805203), (-0.3563643, -3.0320106, 0.20933393), (-2.2280738, 1.3255242, -0.69467527), (-9.822442, -0.2897844, 1.2078711), (1.0085448, -1.5417124, 1.3852195), (3.6201782, -1.0195528, 0.6305692), (-1.8529407, -0.9336014, 3.4716403), (-4.9395013, -2.0921736, -0.4854975), (-1.7701721, 4.9668503, -0.42375702), (3.8150592, 0.63044715, 2.327867), (-0.023033539, -1.3436908, 3.7326167), (5.4331927, -2.1989808, 0.66565067), (-9.577186, -0.84950465, 2.1364267), (3.161377, -4.258226, -1.5094404), (0.6550044, 1.3113178, 0.96859825), (-3.3296604, -3.5226033, -0.62722355), (1.2736093, -4.3039093, 3.7858076), (0.24549511, 2.0192997, 3.1561978), (-3.3007815, 2.4191258, 1.910233), (-5.8171916, -3.865008, -1.0611073), (8.0904255, -2.841154, -1.9629527), (-7.039057, 2.145501, -1.5851824), (7.0402064, 2.5500705, 1.1037717), (-4.5478754, 0.36990902, -0.13779685), (3.0902405, 0.9351662, 2.655098), (1.4942658, 3.8043597, -0.6515665), (-5.6595216, -4.9071, -0.24765635), (5.746875, -1.8724121, 0.015563055)]
            color3f[] primvars:displayColor = [(0.8514114, 0.8914114, 0.9114114), (0.9027358, 0.94273585, 0.96273583), (0.8848189, 0.92481893, 0.9448189), (0.87080127, 0.9108013, 0.9308013), (0.7942375, 0.8342375, 0.8542375), (0.9116369, 0.9516369, 0.9716369), (0.84231937, 0.8823194, 0.9023194), (0.88740575, 0.9274057, 0.94740576), (0.8979318, 0.93793184, 0.9579318), (0.91251576, 0.9525158, 0.97251576), (0.9364646, 0.9764646, 0.9964646), (0.8085596, 0.8485596, 0.8685596), (0.7812385, 0.8212385, 0.8412385), (0.79198205, 0.8319821, 0.85198206), (0.7835741, 0.82357407, 0.84357405), (0.8085631, 0.8485631, 0.8685631), (0.79792786, 0.8379278, 0.85792786), (0.9380743, 0.9780743, 0.9980743), (0.81333846, 0.8533385, 0.87333846), (0.8682311, 0.9082311, 0.9282311), (0.8634228, 0.90342283, 0.9234228), (0.90720433, 0.94720435, 0.96720433), (0.79538614, 0.83538616, 0.85538614), (0.7786911, 0.81869113, 0.8386911), (0.80625665, 0.8462567, 0.86625665), (0.8896636, 0.9296636, 0.9496636), (0.87057453, 0.91057456, 0.93057454), (0.80845493, 0.8484549, 0.86845493), (0.8629905, 0.9029905, 0.9229905), (0.8782478, 0.91824776, 0.93824774), (0.76322097, 0.8032209, 0.82322097), (0.8745132, 0.91451323, 0.9345132), (0.77354735, 0.8135473, 0.8335473), (0.88666433, 0.9266643, 0.94666433), (0.9221505, 0.96215045, 0.9821505), (0.86310536, 0.9031054, 0.92310536), (0.77443635, 0.8144364, 0.83443636), (0.82991856, 0.8699185, 0.88991857), (0.7750808, 0.8150808, 0.8350808), (0.8014399, 0.8414399, 0.8614399), (0.80604947, 0.8460494, 0.86604947), (0.7905293, 0.8305293, 0.8505293), (0.8188529, 0.8588529, 0.8788529), (0.92455983, 0.9645598, 0.98455983), (0.78451174, 0.82451177, 0.84451175), (0.93100005, 0.971, 0.99100006), (0.79853445, 0.8385345, 0.85853446), (0.9110413, 0.95104134, 0.9710413), (0.91710925, 0.9571092, 0.97710925), (0.90247244, 0.94247246, 0.96247244), (0.9093403, 0.94934034, 0.9693403), (0.84036654, 0.88036656, 0.90036654), (0.8832087, 0.9232087, 0.9432087), (0.8449959, 0.88499594, 0.9049959), (0.8855161, 0.92551607, 0.9455161), (0.9025478, 0.9425478, 0.9625478), (0.7833838, 0.8233838, 0.8433838), (0.8623865, 0.90238655, 0.9223865), (0.87723804, 0.91723806, 0.93723804), (0.88917917, 0.92917913, 0.9491792), (0.8566522, 0.89665216, 0.9166522), (0.82273126, 0.8627313, 0.88273126), (0.84774053, 0.88774055, 0.90774053), (0.79112136, 0.8311213, 0.8511213), (0.8529745, 0.8929745, 0.9129745), (0.84866464, 0.88866466, 0.90866464), (0.8122305, 0.85223055, 0.8722305), (0.8607948, 0.9007948, 0.9207948), (0.79748315, 0.8374831, 0.85748315), (0.7961741, 0.8361741, 0.8561741), (0.9344929, 0.97449285, 0.9944929), (0.8483873, 0.88838726, 0.9083873), (0.9322357, 0.97223574, 0.9922357), (0.838062, 0.87806195, 0.898062), (0.7944613, 0.83446133, 0.8544613), (0.76410145, 0.80410147, 0.82410145), (0.82396245, 0.8639625, 0.88396245), (0.8518844, 0.89188445, 0.9118844), (0.8276325, 0.8676325, 0.8876325), (0.8736367, 0.9136367, 0.9336367), (0.91421753, 0.95421755, 0.97421753), (0.8168573, 0.8568573, 0.8768573), (0.9197575, 0.9597575, 0.9797575), (0.77746284, 0.81746286, 0.83746284), (0.83250016, 0.8725002, 0.89250016), (0.9240471, 0.96404713, 0.9840471), (0.85050136, 0.8905014, 0.91050136), (0.7667385, 0.80673844, 0.8267385), (0.7932165, 0.83321655, 0.8532165), (0.7771444, 0.81714433, 0.8371444), (0.8188289, 0.8588289, 0.8788289), (0.7623843, 0.80238426, 0.8223843), (0.8930802, 0.93308014, 0.9530802), (0.7627752, 0.8027752, 0.8227752), (0.8732895, 0.91328955, 0.9332895), (0.9048678, 0.94486785, 0.96486783), (0.9066355, 0.9466355, 0.9666355), (0.89810854, 0.93810856, 0.95810854), (0.82150936, 0.8615094, 0.88150936), (0.87232363, 0.91232365, 0.93232363), (0.878757, 0.918757, 0.938757), (0.8756077, 0.91560775, 0.93560773), (0.87077135, 0.91077137, 0.93077135), (0.7951803, 0.8351803, 0.8551803), (0.8590104, 0.89901036, 0.9190104), (0.8748423, 0.91484225, 0.9348423), (0.76812047, 0.8081204, 0.82812047), (0.84919375, 0.8891938, 0.90919375), (0.8548165, 0.89481646, 0.9148165), (0.86091596, 0.900916, 0.92091596), (0.8041041, 0.8441041, 0.8641041), (0.9215576, 0.96155757, 0.9815576), (0.7732308, 0.81323075, 0.8332308), (0.8038675, 0.8438675, 0.8638675), (0.93618774, 0.97618777, 0.99618775), (0.84202397, 0.882024, 0.902024), (0.83971554, 0.87971556, 0.89971554), (0.83551574, 0.8755157, 0.89551574), (0.89217126, 0.9321712, 0.95217127), (0.8724958, 0.91249573, 0.9324958), (0.8665015, 0.90650153, 0.9265015), (0.93634975, 0.9763498, 0.99634975), (0.8087691, 0.8487691, 0.8687691), (0.7730487, 0.8130487, 0.8330487), (0.82717305, 0.8671731, 0.88717306), (0.9109397, 0.9509397, 0.9709397), (0.89837515, 0.9383752, 0.95837516), (0.826411, 0.866411, 0.886411), (0.89429885, 0.9342989, 0.95429885), (0.9175321, 0.95753205, 0.9775321)] (
                interpolation = "vertex"
            )
            float[] widths = [1.2122151, 1.392871, 1.590609, 1.4193147, 0.7655062, 1.1845843, 1.4286945, 1.6242371, 0.7772459, 1.7538466, 1.2169861, 1.5563619, 1.5338446, 1.5767237, 1.5050837, 0.93415225, 1.6733516, 0.81036603, 1.061851, 0.9673142, 1.232097, 1.6992661, 1.7344453, 1.163603, 1.4750375, 0.89297676, 1.6376399, 0.7182323, 1.1056639, 1.7785428, 0.7385886, 0.7233851, 1.7992934, 1.5107969, 1.4536606, 1.64982, 1.3697536, 1.5010278, 1.622207, 1.2290525, 1.7125107, 0.92283183, 1.6808996, 1.5865872, 1.0481355, 1.4823395, 1.0026791, 1.0469089, 0.73463434, 1.0399334, 0.72719914, 1.3920983, 1.7543067, 0.7118433, 1.0803134, 1.1328678, 1.4946148, 1.114483, 1.2100785, 1.4057779, 1.7750944, 1.6413618, 1.5450568, 1.5798459, 0.8635431, 1.7403221, 1.2793298, 1.6279857, 1.6905775, 1.3302879, 0.7305311, 1.3191533, 1.1551515, 0.83966434, 1.0489361, 1.5572177, 1.0542905, 0.83506167, 1.1804537, 0.92469287, 1.3728822, 1.6929452, 1.7981892, 0.9854473, 0.8386036, 1.4506215, 1.5339699, 0.81679064, 0.8612103, 1.7195816, 1.5411925, 1.3610228, 1.1993461, 1.2638168, 1.6468049, 1.7809483, 1.5557867, 1.4642787, 0.77760684, 1.4025832, 1.0715972, 1.7998757, 0.72510254, 0.75550264, 1.6962076, 1.7946156, 1.535173, 0.8860349, 1.1627742, 1.4206227, 0.7154137, 1.1289511, 1.738903, 1.7704849, 1.2151854, 1.3866727, 0.8367585, 1.3404603, 1.7478985, 1.5627397, 1.3213794, 0.97385716, 0.76686555, 1.295813, 1.394216, 1.5193095, 1.3861057, 1.5908647, 1.3034748, 0.80671865]
        }
    }

    def Xform "Lighting" (
        kind = "group"
    )
    {
        def DistantLight "PolarLowSun"
        {
            float inputs:angle = 0.45
            color3f inputs:color = (1, 0.86, 0.68)
            float inputs:intensity = 650
            custom float inputs:shadow:distance = 200
            custom bool inputs:shadow:enable = 1
            custom float inputs:shadow:falloff = 0
            float3 xformOp:rotateXYZ = (-34, 0, -38)
            uniform token[] xformOpOrder = ["xformOp:rotateXYZ"]
        }

        def SphereLight "SkyFill"
        {
            color3f inputs:color = (0.46, 0.54, 0.64)
            float inputs:intensity = 42
            float inputs:radius = 80
            double3 xformOp:translate = (25, 25, 45)
            uniform token[] xformOpOrder = ["xformOp:translate"]
        }
    }

    def Xform "Camera"
    {
        def Camera "MainCamera"
        {
            float2 clippingRange = (0.1, 100000)
            float focalLength = 28
            float horizontalAperture = 24
            float verticalAperture = 18
            matrix4d xformOp:transform = ( (0.8701720430352298, 0.49274802436934695, 2.775557561562892e-17, 0), (-0.1675996982277085, 0.29597393516808096, 0.940377461902986, -0), (0.4633691365141571, -0.8182901772484051, 0.34013266403698766, 0), (72, -55.000000000000014, 41.99999999999999, 1) )
            uniform token[] xformOpOrder = ["xformOp:transform"]
        }
    }

    def Scope "RenderNotes"
    {
        custom string description = "Week 7 UsdVol scene. /World/CloudVolume/Volume references vdbs/cloud_density.vdb with field name 'density'. Generate the VDB locally with repro/generate_week7_vdb.sh. HdStorm can display the volume, but may not cast VDB volume shadows onto surface receivers; use RTX/HdPrman or a radiative-transfer shadow mask for production cloud shadows."
        custom string renderCommand = "usdrecord --disableCameraLight --camera /World/Camera/MainCamera --frames 1:20 --imageWidth 1280 assets/week7/usdvol_cloud_scene.usda renders/week7/usdvol_cloud_###.png"
    }
    variantSet "cloud_representation" = {
        "points_preview" {
            over "CloudVolume"
            {
                over "Volume"
                {
                    token visibility = "invisible"
                }

                over "PointsPreview"
                {
                    token visibility = "inherited"
                }
            }

        }
        "usdvol_density" {
            over "CloudVolume"
            {
                over "Volume"
                {
                    token visibility = "inherited"
                }

                over "PointsPreview"
                {
                    token visibility = "invisible"
                }
            }

        }
    }
    variantSet "shadow_mode" = {
        "renderer_volume_shadow" {

        }
        "surface_albedo_debug" {

        }
    }
}

