#usda 1.0
(
    defaultPrim = "World"
    endTimeCode = 20
    framesPerSecond = 8
    metersPerUnit = 1
    startTimeCode = 1
    timeCodesPerSecond = 8
    upAxis = "Z"
)

def Xform "World" (
    kind = "assembly"
)
{
    def "Materials"
    {
        def Material "OpenWater"
        {
            token outputs:surface.connect = </World/Materials/OpenWater/PreviewSurface.outputs:surface>

            def Shader "PreviewSurface"
            {
                uniform token info:id = "UsdPreviewSurface"
                color3f inputs:diffuseColor = (0.015, 0.055, 0.11)
                float inputs:roughness = 0.55
                float inputs:specular = 0.02
                token outputs:surface
            }
        }

        def Material "Floe"
        {
            token outputs:surface.connect = </World/Materials/Floe/PreviewSurface.outputs:surface>

            def Shader "PreviewSurface"
            {
                uniform token info:id = "UsdPreviewSurface"
                color3f inputs:diffuseColor = (0.7, 0.76, 0.8)
                float inputs:roughness = 0.9
                float inputs:specular = 0.02
                token outputs:surface
            }
        }

        def Material "SeaIceSheet"
        {
            token outputs:surface.connect = </World/Materials/SeaIceSheet/PreviewSurface.outputs:surface>

            def Shader "PreviewSurface"
            {
                uniform token info:id = "UsdPreviewSurface"
                color3f inputs:diffuseColor = (0.78, 0.82, 0.85)
                float inputs:roughness = 0.9
                float inputs:specular = 0.02
                token outputs:surface
            }
        }

        def Material "SnowBand"
        {
            token outputs:surface.connect = </World/Materials/SnowBand/PreviewSurface.outputs:surface>

            def Shader "PreviewSurface"
            {
                uniform token info:id = "UsdPreviewSurface"
                color3f inputs:diffuseColor = (0.9, 0.92, 0.95)
                float inputs:roughness = 0.9
                float inputs:specular = 0.02
                token outputs:surface
            }
        }

        def Material "MeltPond"
        {
            token outputs:surface.connect = </World/Materials/MeltPond/PreviewSurface.outputs:surface>

            def Shader "PreviewSurface"
            {
                uniform token info:id = "UsdPreviewSurface"
                color3f inputs:diffuseColor = (0.12, 0.34, 0.44)
                float inputs:roughness = 0.35
                float inputs:specular = 0.02
                token outputs:surface
            }
        }
    }

    def Xform "Surface"
    {
        def Mesh "OpenWater" (
            prepend apiSchemas = ["MaterialBindingAPI"]
        )
        {
            float3[] extent = [(-6400, -6400, 0), (12800, 12800, 0)]
            int[] faceVertexCounts = [4]
            int[] faceVertexIndices = [0, 1, 2, 3]
            rel material:binding = </World/Materials/OpenWater>
            point3f[] points = [(-6400, -6400, 0), (12800, -6400, 0), (12800, 12800, 0), (-6400, 12800, 0)]
        }

        def Mesh "SeaIceSheet" (
            prepend apiSchemas = ["MaterialBindingAPI"]
        )
        {
            float3[] extent = [(-6400, 9100, 2), (12800, 12800, 2)]
            int[] faceVertexCounts = [8]
            int[] faceVertexIndices = [0, 1, 2, 3, 4, 5, 6, 7]
            rel material:binding = </World/Materials/SeaIceSheet>
            point3f[] points = [(-6400, 10500, 2), (-2500, 9300, 2), (1500, 10800, 2), (5200, 9100, 2), (8600, 10400, 2), (12800, 9600, 2), (12800, 12800, 2), (-6400, 12800, 2)]
        }

        def Mesh "SnowBand" (
            prepend apiSchemas = ["MaterialBindingAPI"]
        )
        {
            float3[] extent = [(-6400, 11300, 3), (12800, 12800, 3)]
            int[] faceVertexCounts = [6]
            int[] faceVertexIndices = [0, 1, 2, 3, 4, 5]
            rel material:binding = </World/Materials/SnowBand>
            point3f[] points = [(-6400, 11800, 3), (2000, 11300, 3), (7000, 12000, 3), (12800, 11400, 3), (12800, 12800, 3), (-6400, 12800, 3)]
        }

        def Mesh "Floe_00" (
            prepend apiSchemas = ["MaterialBindingAPI"]
        )
        {
            float3[] extent = [(-4531.867, 6334.8735, 2), (-2550, 7858.179, 2)]
            int[] faceVertexCounts = [9]
            int[] faceVertexIndices = [0, 1, 2, 3, 4, 5, 6, 7, 8]
            rel material:binding = </World/Materials/Floe>
            point3f[] points = [(-2550, 7200, 2), (-2658.814, 7764.671, 2), (-3360.7498, 7831.7812, 2), (-3975, 7858.179, 2), (-4531.867, 7500.455, 2), (-4253.549, 6980.5845, 2), (-3975, 6541.821, 2), (-3309.3186, 6334.8735, 2), (-2885.7017, 6787.634, 2)]
        }

        def Mesh "Floe_01" (
            prepend apiSchemas = ["MaterialBindingAPI"]
        )
        {
            float3[] extent = [(-163.37102, 6241.5693, 2), (1306.0254, 7358.4307, 2)]
            int[] faceVertexCounts = [9]
            int[] faceVertexIndices = [0, 1, 2, 3, 4, 5, 6, 7, 8]
            rel material:binding = </World/Materials/Floe>
            point3f[] points = [(1306.0254, 6800, 2), (1040.785, 7163.018, 2), (602.11035, 7263.2773, 2), (96.98733, 7358.4307, 2), (-163.37102, 6993.1577, 2), (-52.567425, 6639.1055, 2), (96.98733, 6241.5693, 2), (622.586, 6243.824, 2), (950.4571, 6497.617, 2)]
        }

        def Mesh "Floe_02" (
            prepend apiSchemas = ["MaterialBindingAPI"]
        )
        {
            float3[] extent = [(2737.6877, 6772.8506, 2), (5138.2246, 8627.149, 2)]
            int[] faceVertexCounts = [9]
            int[] faceVertexIndices = [0, 1, 2, 3, 4, 5, 6, 7, 8]
            rel material:binding = </World/Materials/Floe>
            point3f[] points = [(5138.2246, 7700, 2), (4551.709, 8204.606, 2), (3996.3074, 8590.651, 2), (3130.8877, 8627.149, 2), (2877.8926, 7968.4956, 2), (2737.6877, 7390.68, 2), (3130.8877, 6772.8506, 2), (3970.3987, 6926.8975, 2), (4666.005, 7118.6685, 2)]
        }

        def Mesh "Floe_03" (
            prepend apiSchemas = ["MaterialBindingAPI"]
        )
        {
            float3[] extent = [(6720.324, 5917.4565, 2), (8440.829, 7237.528, 2)]
            int[] faceVertexCounts = [9]
            int[] faceVertexIndices = [0, 1, 2, 3, 4, 5, 6, 7, 8]
            rel material:binding = </World/Materials/Floe>
            point3f[] points = [(8440.829, 6500, 2), (8123.2383, 6851.2393, 2), (7762.5576, 7237.528, 2), (7179.5854, 7082.5435, 2), (6958.1533, 6686.8906, 2), (6720.324, 6243.8594, 2), (7179.5854, 5917.4565, 2), (7718.6084, 5961.87, 2), (8317.118, 6018.613, 2)]
        }

        def Mesh "Floe_04" (
            prepend apiSchemas = ["MaterialBindingAPI"]
        )
        {
            float3[] extent = [(10118.344, 7428.036, 2), (11355.691, 8471.506, 2)]
            int[] faceVertexCounts = [9]
            int[] faceVertexIndices = [0, 1, 2, 3, 4, 5, 6, 7, 8]
            rel material:binding = </World/Materials/Floe>
            point3f[] points = [(11335.541, 7900, 2), (11258.903, 8208.053, 2), (10925.965, 8471.506, 2), (10532.2295, 8271.033, 2), (10237.071, 8063.911, 2), (10118.344, 7701.518, 2), (10532.2295, 7528.9663, 2), (10904.025, 7428.036, 2), (11355.691, 7526.976, 2)]
        }

        def Mesh "Floe_05" (
            prepend apiSchemas = ["MaterialBindingAPI"]
        )
        {
            float3[] extent = [(-1152.4183, 3936.848, 2), (-149.66446, 4826.9214, 2)]
            int[] faceVertexCounts = [9]
            int[] faceVertexIndices = [0, 1, 2, 3, 4, 5, 6, 7, 8]
            rel material:binding = </World/Materials/Floe>
            point3f[] points = [(-169.75531, 4400, 2), (-149.66446, 4702.3013, 2), (-505.90283, 4826.9214, 2), (-815.1223, 4698.082, 2), (-1152.4183, 4560.851, 2), (-1109.2043, 4251.732, 2), (-815.1223, 4101.918, 2), (-497.9172, 3936.848, 2), (-184.89276, 4121.347, 2)]
        }

        def Mesh "Floe_06" (
            prepend apiSchemas = ["MaterialBindingAPI"]
        )
        {
            float3[] extent = [(5592.1724, 3674.2332, 2), (6536.8643, 4417.279, 2)]
            int[] faceVertexCounts = [9]
            int[] faceVertexIndices = [0, 1, 2, 3, 4, 5, 6, 7, 8]
            rel material:binding = </World/Materials/Floe>
            point3f[] points = [(6536.8643, 4100, 2), (6513.985, 4377.8994, 2), (6169.931, 4417.279, 2), (5881.568, 4402.6685, 2), (5592.1724, 4247.867, 2), (5721.57, 3989.81, 2), (5881.568, 3797.3315, 2), (6193.843, 3674.2332, 2), (6408.499, 3892.911, 2)]
        }

        def Mesh "Floe_07" (
            prepend apiSchemas = ["MaterialBindingAPI"]
        )
        {
            float3[] extent = [(11303.806, 5016.304, 2), (12782.78, 6142.326, 2)]
            int[] faceVertexCounts = [9]
            int[] faceVertexIndices = [0, 1, 2, 3, 4, 5, 6, 7, 8]
            rel material:binding = </World/Materials/Floe>
            point3f[] points = [(12782.78, 5600, 2), (12567.543, 5980.9805, 2), (12100.081, 6054.071, 2), (11608.609, 6142.326, 2), (11303.806, 5802.7153, 2), (11458.413, 5442.3027, 2), (11608.609, 5057.674, 2), (12128.651, 5016.304, 2), (12441.506, 5303.6265, 2)]
        }

        def Mesh "MeltPond_00" (
            prepend apiSchemas = ["MaterialBindingAPI"]
        )
        {
            float3[] extent = [(-661.787, 11079.026, 4), (610.36804, 11768.528, 4)]
            int[] faceVertexCounts = [28]
            int[] faceVertexIndices = [0, 1, 2, 3, 4, 5, 6, 7, 8, 9, 10, 11, 12, 13, 14, 15, 16, 17, 18, 19, 20, 21, 22, 23, 24, 25, 26, 27]
            rel material:binding = </World/Materials/MeltPond>
            point3f[] points = [(586.2707, 11400, 4), (547.1236, 11468.481, 4), (506.14304, 11533.667, 4), (459.5324, 11600.965, 4), (391.4377, 11669.175, 4), (288.29828, 11728.296, 4), (151.69312, 11764.464, 4), (4.1149508e-14, 11768.528, 4), (-142.33394, 11741.978, 4), (-259.7629, 11695.802, 4), (-353.54318, 11643.116, 4), (-436.64883, 11590.957, 4), (-519.6674, 11537.238, 4), (-598.54254, 11474.917, 4), (-653.7293, 11400, 4), (-661.787, 11317.167, 4), (-611.05835, 11238.626, 4), (-509.93863, 11176.991, 4), (-381.68964, 11137.529, 4), (-249.71756, 11115.638, 4), (-124.23285, 11101.513, 4), (-1.04335784e-13, 11088.528, 4), (133.59203, 11079.026, 4), (278.25293, 11083.143, 4), (419.58417, 11111.471, 4), (532.8222, 11166.984, 4), (597.53394, 11242.197, 4), (610.36804, 11323.603, 4)]
        }

        def Mesh "MeltPond_01" (
            prepend apiSchemas = ["MaterialBindingAPI"]
        )
        {
            float3[] extent = [(3298.0007, 10554.498, 4), (4938.001, 11445.212, 4)]
            int[] faceVertexCounts = [28]
            int[] faceVertexIndices = [0, 1, 2, 3, 4, 5, 6, 7, 8, 9, 10, 11, 12, 13, 14, 15, 16, 17, 18, 19, 20, 21, 22, 23, 24, 25, 26, 27]
            rel material:binding = </World/Materials/MeltPond>
            point3f[] points = [(4938.001, 11000, 4), (4937.159, 11088.2295, 4), (4922.674, 11182.499, 4), (4869.1733, 11279.84, 4), (4757.4224, 11366.541, 4), (4590.4355, 11425.148, 4), (4393.781, 11445.212, 4), (4200, 11429.81, 4), (4028.9724, 11392.937, 4), (3878.9365, 11349.608, 4), (3734.703, 11305.963, 4), (3586.4587, 11256.575, 4), (3444.4473, 11190.802, 4), (3337.8364, 11103.191, 4), (3298.0007, 11000, 4), (3338.2776, 10896.861, 4), (3445.0847, 10809.359, 4), (3586.97, 10743.639, 4), (3734.8992, 10694.166, 4), (3878.8665, 10650.315, 4), (4028.8462, 10606.773, 4), (4200, 10569.81, 4), (4393.9067, 10554.498, 4), (4590.506, 10574.775, 4), (4757.226, 10633.588, 4), (4868.662, 10720.374, 4), (4922.036, 10817.662, 4), (4936.7183, 10911.823, 4)]
        }

        def Mesh "MeltPond_02" (
            prepend apiSchemas = ["MaterialBindingAPI"]
        )
        {
            float3[] extent = [(7745.0967, 11274.685, 4), (8812.368, 11882.967, 4)]
            int[] faceVertexCounts = [28]
            int[] faceVertexIndices = [0, 1, 2, 3, 4, 5, 6, 7, 8, 9, 10, 11, 12, 13, 14, 15, 16, 17, 18, 19, 20, 21, 22, 23, 24, 25, 26, 27]
            rel material:binding = </World/Materials/MeltPond>
            point3f[] points = [(8792.099, 11600, 4), (8812.368, 11667.468, 4), (8801.453, 11739.319, 4), (8746.927, 11805.622, 4), (8651.759, 11854.476, 4), (8533.186, 11879.3545, 4), (8411.948, 11882.967, 4), (8300, 11874.685, 4), (8195.794, 11863.397, 4), (8090.4194, 11851.076, 4), (7979.5884, 11831.798, 4), (7872.003, 11796.913, 4), (7787.359, 11742.428, 4), (7745.0967, 11673.069, 4), (7752.098, 11600, 4), (7798.443, 11533.955, 4), (7864.446, 11478.989, 4), (7933.8223, 11431.528, 4), (8003.3296, 11385.377, 4), (8081.9463, 11338.773, 4), (8180.5264, 11298.01, 4), (8300, 11274.685, 4), (8427.216, 11278.44, 4), (8541.659, 11310.494, 4), (8628.018, 11362.699, 4), (8685.107, 11422.819, 4), (8724.366, 11482.098, 4), (8759.021, 11539.557, 4)]
        }

        def Mesh "MeltPond_03" (
            prepend apiSchemas = ["MaterialBindingAPI"]
        )
        {
            float3[] extent = [(-3529.1665, 10916.406, 4), (-2643.291, 11442.138, 4)]
            int[] faceVertexCounts = [28]
            int[] faceVertexIndices = [0, 1, 2, 3, 4, 5, 6, 7, 8, 9, 10, 11, 12, 13, 14, 15, 16, 17, 18, 19, 20, 21, 22, 23, 24, 25, 26, 27]
            rel material:binding = </World/Materials/MeltPond>
            point3f[] points = [(-2651.9329, 11200, 4), (-2643.291, 11263.029, 4), (-2674.6865, 11323.845, 4), (-2742.4553, 11372.405, 4), (-2831.4927, 11403.585, 4), (-2924.8398, 11419.926, 4), (-3013.611, 11428.857, 4), (-3100, 11436.406, 4), (-3191.402, 11442.138, 4), (-3290.4453, 11439.117, 4), (-3388.8057, 11418.975, 4), (-3469.8025, 11378.316, 4), (-3518.069, 11321.735, 4), (-3529.1665, 11259.229, 4), (-3511.9329, 11200, 4), (-3481.729, 11147.318, 4), (-3449.5198, 11098.226, 4), (-3414.8303, 11048.191, 4), (-3367.6938, 10997.032, 4), (-3297.9797, 10951.422, 4), (-3204.9792, 10921.895, 4), (-3100, 10916.406, 4), (-3000.0342, 10935.176, 4), (-2917.3052, 10970.613, 4), (-2852.6042, 11012.423, 4), (-2797.4272, 11054.102, 4), (-2743.2358, 11096.116, 4), (-2690.7285, 11143.518, 4)]
        }

        def Mesh "MeltPond_04" (
            prepend apiSchemas = ["MaterialBindingAPI"]
        )
        {
            float3[] extent = [(10491.67, 10454.964, 4), (11615.474, 11138.157, 4)]
            int[] faceVertexCounts = [28]
            int[] faceVertexIndices = [0, 1, 2, 3, 4, 5, 6, 7, 8, 9, 10, 11, 12, 13, 14, 15, 16, 17, 18, 19, 20, 21, 22, 23, 24, 25, 26, 27]
            rel material:binding = </World/Materials/MeltPond>
            point3f[] points = [(11615.474, 10800, 4), (11592.898, 10879.745, 4), (11522.391, 10948.246, 4), (11424.401, 10999.443, 4), (11320.063, 11036.508, 4), (11218.77, 11067.701, 4), (11115.583, 11098.416, 4), (11000, 11125.487, 4), (10869.024, 11138.157, 4), (10734.299, 11125.129, 4), (10617.612, 11082.5625, 4), (10537.963, 11017.13, 4), (10499.854, 10941.935, 4), (10491.67, 10868.371, 4), (10495.474, 10800, 4), (10500.979, 10732.881, 4), (10513.305, 10661.883, 4), (10548.75, 10587.939, 4), (10621.755, 10520.499, 4), (10732.82, 10473.062, 4), (10866.359, 10454.964, 4), (11000, 10465.487, 4), (11118.247, 10494.705, 4), (11220.248, 10530.49, 4), (11315.921, 10566.554, 4), (11413.613, 10605.627, 4), (11508.938, 10655.571, 4), (11583.589, 10721.507, 4)]
        }
    }

    def Xform "CloudVolume"
    {
        def Xform "Tile_0_0"
        {
            double3 xformOp:translate = (-6400, -6400, 0)
            uniform token[] xformOpOrder = ["xformOp:translate"]

            def Volume "Volume" (
                customData = {
                    double asymmetry_g = 0.85
                    string source = "7SEAS SAM-LES cloudiest 64x64 tile via src/cloud_field.py"
                    double ssa = 0.999999
                    string units = "extinction_per_meter"
                }
            )
            {
                float3[] extent = [(0, 0, 0), (6400, 6400, 2560)]
                custom rel field:density = </World/CloudVolume/Tile_0_0/Volume/Density>

                def OpenVDBAsset "Density"
                {
                    token fieldClass = "fogVolume"
                    token fieldName = "density"
                    asset filePath = @../week7/vdbs/cloud_density.vdb@
                }
            }
        }

        def Xform "Tile_0_1"
        {
            double3 xformOp:translate = (-6400, 0, 0)
            uniform token[] xformOpOrder = ["xformOp:translate"]

            def Volume "Volume" (
                customData = {
                    double asymmetry_g = 0.85
                    string source = "7SEAS SAM-LES cloudiest 64x64 tile via src/cloud_field.py"
                    double ssa = 0.999999
                    string units = "extinction_per_meter"
                }
            )
            {
                float3[] extent = [(0, 0, 0), (6400, 6400, 2560)]
                custom rel field:density = </World/CloudVolume/Tile_0_1/Volume/Density>

                def OpenVDBAsset "Density"
                {
                    token fieldClass = "fogVolume"
                    token fieldName = "density"
                    asset filePath = @../week7/vdbs/cloud_density.vdb@
                }
            }
        }

        def Xform "Tile_0_2"
        {
            double3 xformOp:translate = (-6400, 6400, 0)
            uniform token[] xformOpOrder = ["xformOp:translate"]

            def Volume "Volume" (
                customData = {
                    double asymmetry_g = 0.85
                    string source = "7SEAS SAM-LES cloudiest 64x64 tile via src/cloud_field.py"
                    double ssa = 0.999999
                    string units = "extinction_per_meter"
                }
            )
            {
                float3[] extent = [(0, 0, 0), (6400, 6400, 2560)]
                custom rel field:density = </World/CloudVolume/Tile_0_2/Volume/Density>

                def OpenVDBAsset "Density"
                {
                    token fieldClass = "fogVolume"
                    token fieldName = "density"
                    asset filePath = @../week7/vdbs/cloud_density.vdb@
                }
            }
        }

        def Xform "Tile_1_0"
        {
            double3 xformOp:translate = (0, -6400, 0)
            uniform token[] xformOpOrder = ["xformOp:translate"]

            def Volume "Volume" (
                customData = {
                    double asymmetry_g = 0.85
                    string source = "7SEAS SAM-LES cloudiest 64x64 tile via src/cloud_field.py"
                    double ssa = 0.999999
                    string units = "extinction_per_meter"
                }
            )
            {
                float3[] extent = [(0, 0, 0), (6400, 6400, 2560)]
                custom rel field:density = </World/CloudVolume/Tile_1_0/Volume/Density>

                def OpenVDBAsset "Density"
                {
                    token fieldClass = "fogVolume"
                    token fieldName = "density"
                    asset filePath = @../week7/vdbs/cloud_density.vdb@
                }
            }
        }

        def Xform "Tile_1_1"
        {
            double3 xformOp:translate = (0, 0, 0)
            uniform token[] xformOpOrder = ["xformOp:translate"]

            def Volume "Volume" (
                customData = {
                    double asymmetry_g = 0.85
                    string source = "7SEAS SAM-LES cloudiest 64x64 tile via src/cloud_field.py"
                    double ssa = 0.999999
                    string units = "extinction_per_meter"
                }
            )
            {
                float3[] extent = [(0, 0, 0), (6400, 6400, 2560)]
                custom rel field:density = </World/CloudVolume/Tile_1_1/Volume/Density>

                def OpenVDBAsset "Density"
                {
                    token fieldClass = "fogVolume"
                    token fieldName = "density"
                    asset filePath = @../week7/vdbs/cloud_density.vdb@
                }
            }
        }

        def Xform "Tile_1_2"
        {
            double3 xformOp:translate = (0, 6400, 0)
            uniform token[] xformOpOrder = ["xformOp:translate"]

            def Volume "Volume" (
                customData = {
                    double asymmetry_g = 0.85
                    string source = "7SEAS SAM-LES cloudiest 64x64 tile via src/cloud_field.py"
                    double ssa = 0.999999
                    string units = "extinction_per_meter"
                }
            )
            {
                float3[] extent = [(0, 0, 0), (6400, 6400, 2560)]
                custom rel field:density = </World/CloudVolume/Tile_1_2/Volume/Density>

                def OpenVDBAsset "Density"
                {
                    token fieldClass = "fogVolume"
                    token fieldName = "density"
                    asset filePath = @../week7/vdbs/cloud_density.vdb@
                }
            }
        }

        def Xform "Tile_2_0"
        {
            double3 xformOp:translate = (6400, -6400, 0)
            uniform token[] xformOpOrder = ["xformOp:translate"]

            def Volume "Volume" (
                customData = {
                    double asymmetry_g = 0.85
                    string source = "7SEAS SAM-LES cloudiest 64x64 tile via src/cloud_field.py"
                    double ssa = 0.999999
                    string units = "extinction_per_meter"
                }
            )
            {
                float3[] extent = [(0, 0, 0), (6400, 6400, 2560)]
                custom rel field:density = </World/CloudVolume/Tile_2_0/Volume/Density>

                def OpenVDBAsset "Density"
                {
                    token fieldClass = "fogVolume"
                    token fieldName = "density"
                    asset filePath = @../week7/vdbs/cloud_density.vdb@
                }
            }
        }

        def Xform "Tile_2_1"
        {
            double3 xformOp:translate = (6400, 0, 0)
            uniform token[] xformOpOrder = ["xformOp:translate"]

            def Volume "Volume" (
                customData = {
                    double asymmetry_g = 0.85
                    string source = "7SEAS SAM-LES cloudiest 64x64 tile via src/cloud_field.py"
                    double ssa = 0.999999
                    string units = "extinction_per_meter"
                }
            )
            {
                float3[] extent = [(0, 0, 0), (6400, 6400, 2560)]
                custom rel field:density = </World/CloudVolume/Tile_2_1/Volume/Density>

                def OpenVDBAsset "Density"
                {
                    token fieldClass = "fogVolume"
                    token fieldName = "density"
                    asset filePath = @../week7/vdbs/cloud_density.vdb@
                }
            }
        }

        def Xform "Tile_2_2"
        {
            double3 xformOp:translate = (6400, 6400, 0)
            uniform token[] xformOpOrder = ["xformOp:translate"]

            def Volume "Volume" (
                customData = {
                    double asymmetry_g = 0.85
                    string source = "7SEAS SAM-LES cloudiest 64x64 tile via src/cloud_field.py"
                    double ssa = 0.999999
                    string units = "extinction_per_meter"
                }
            )
            {
                float3[] extent = [(0, 0, 0), (6400, 6400, 2560)]
                custom rel field:density = </World/CloudVolume/Tile_2_2/Volume/Density>

                def OpenVDBAsset "Density"
                {
                    token fieldClass = "fogVolume"
                    token fieldName = "density"
                    asset filePath = @../week7/vdbs/cloud_density.vdb@
                }
            }
        }
    }

    def "Lighting"
    {
        def DistantLight "Sun"
        {
            float inputs:angle = 0.53
            color3f inputs:color = (1, 0.96, 0.9)
            float inputs:intensity = 3000
            float xformOp:rotateX = 55
            float xformOp:rotateZ = 140
            uniform token[] xformOpOrder = ["xformOp:rotateZ", "xformOp:rotateX"]
        }
    }

    def "Camera"
    {
        def Camera "MainCamera"
        {
            float2 clippingRange = (10, 90000)
            float focalLength = 24
            matrix4d xformOp:transform.timeSamples = {
                1: ( (0.7808688094430303, -0.6246950475544243, 0, 0), (0.48068293622734437, 0.6008536702841804, 0.6386851976724436, 0), (-0.39898347993229405, -0.49872934991536755, 0.7694681398694242, 0), (-1000, -500, 5400, 1) ),
                2: ( (0.7812866945064506, -0.6241723327633035, 0, 0), (0.47965878550985647, 0.600396729157949, 0.639883752801746, 0), (-0.39939773468360285, -0.49993266209485887, 0.7684717189983988, 0), (-955.0954949701122, -454.2936288088643, 5393.585070710016, 1) ),
                3: ( (0.7824686110225619, -0.6226900294403487, 0, 0), (0.4767424264658399, 0.5990717156456206, 0.6432959958843798, 0), (-0.40057400261610304, -0.5033589243760266, 0.7656175688156093, 0), (-826.9135442484327, -323.82271468144046, 5375.273363464062, 1) ),
                4: ( (0.7842958169659543, -0.6203870336247417, 0, 0), (0.47217548866747094, 0.5969261776347091, 0.6486366057786522, 0), (-0.40240573975943905, -0.5087229766431917, 0.7610982549211036, 0), (-625.2514943869369, -118.55955678670364, 5346.464499198134, 1) ),
                5: ( (0.7866417010043073, -0.617409778219498, 0, 0), (0.46620548786108124, 0.5939923385181692, 0.6556108181458932, 0), (-0.40478052982975965, -0.5157308091831111, 0.7550989704204822, 0), (-359.9066919376004, 151.523545706371, 5308.558098848229, 1) ),
                6: ( (0.7893794343464973, -0.6139056186669121, 0, 0), (0.4590813052456229, 0.5903013916711907, 0.6639191382729005, 0), (-0.40758368932622807, -0.5240841138216761, 0.7478043713665822, 0), (-40.67648345239843, 476.4542936288087, 5262.953783350343, 1) ),
                7: ( (0.7923879417921165, -0.610017499505099, 0, 0), (0.4510494856815848, 0.5858949520228252, 0.6732618113784186, 0), (-0.4107014866893365, -0.5334845410053772, 0.7394041745482985, 0), (322.6417845166932, 846.260387811634, 5211.051173640472, 1) ),
                8: ( (0.795556023237949, -0.6058800325888121, 0, 0), (0.44235137404390473, 0.5808333021052751, 0.6833432058979968, 0), (-0.4140240038588216, -0.5436378033908813, 0.7300972969084656, 0), (720.2507654176991, 1250.9695290858724, 5154.249890654614, 1) ),
                9: ( (0.7987847217563013, -0.601616961437016, 0, 0), (0.43322103201504353, 0.5752004409758362, 0.6938760625075808, 0), (-0.4174476083396919, -0.554257597523476, 0.720094445110484, 0), (1142.353112698644, 1680.6094182825482, 5093.949555328765, 1) ),
                10: ( (0.8019881998425814, -0.5973398758774235, 0, 0), (0.42388383835141696, 0.5691062160591062, 0.7045854145718287, 0), (-0.4208769640853791, -0.5650691882677997, 0.709619189123747, 0), (1579.1514798075518, 2125.2077562326867, 5031.549788598921, 1) ),
                11: ( (0.8050934581495299, -0.5931479778645721, 0, 0), (0.4145556726459148, 0.562685994964662, 0.7152119024091543, 0), (-0.42422649365866366, -0.5758124238202903, 0.6989076724806207, 0), (2020.8485201924473, 2574.7922437673124, 4968.450211401079, 1) ),
                12: ( (0.8080392327459869, -0.5891286772372205, 0, 0), (0.4054426057393351, 0.5560984292948076, 0.7255141834500178, 0), (-0.42742121121275106, -0.5862439241412835, 0.688207214153451, 0), (2457.646887301356, 3019.3905817174514, 4906.050444671235, 1) ),
                13: ( (0.8107743635677744, -0.585358805675007, 0, 0), (0.396741055395414, 0.5495218890890227, 0.7352701737291985, 0), (-0.4303968707425784, -0.5961382071556576, 0.6777741302412146, 0), (2879.7492345823002, 3449.030470914127, 4845.750109345386, 1) ),
                14: ( (0.8132558610920064, -0.5819062677094132, 0, 0), (0.38863840075182915, 0.5431501167722107, 0.7442769270314611, 0), (-0.4330994087511087, -0.6052875731838832, 0.6678711371878601, 0), (3277.3582154833066, 3853.7396121883658, 4788.948826359528, 1) ),
                15: ( (0.815446826786224, -0.5788319900318898, 0, 0), (0.3813140745325848, 0.5371875733222541, 0.7523490464083185, 0), (-0.43548369573112167, -0.613500642529305, 0.6587646866434886, 0), (3640.6764834523974, 4223.545706371191, 4737.046216649657, 1) ),
                16: ( (0.8173143151088441, -0.5761920776253009, 0, 0), (0.37494116438958075, 0.5318448359133193, 0.7593156087942085, 0), (-0.43751163820445527, -0.6205995167530937, 0.6507225263055524, 0), (3959.906691937601, 4548.476454293629, 4691.441901151771, 1) ),
                17: ( (0.8188271644810066, -0.5740401333600246, 0, 0), (0.36968855494918923, 0.5273342639272786, 0.765015651099934, 0), (-0.439149686379912, -0.6264155963737498, 0.6440116874499595, 0), (4225.251494386936, 4818.559556786703, 4653.535500801866, 1) ),
                18: ( (0.8199537710503019, -0.57242974533159, 0, 0), (0.36572363394986795, 0.5238659857651278, 0.7692923062976997, 0), (-0.44036579897954387, -0.6307841275887829, 0.638896977196767, 0), (4426.913544248433, 5023.822714681441, 4624.726636535938, 1) ),
                19: ( (0.8206597283692458, -0.5714171945548328, 0, 0), (0.3632155738949274, 0.5216440755590314, 0.771985689837799, 0), (-0.4411258971235924, -0.633537566527233, 0.635639909607364, 0), (4555.095494970112, 5154.293628808864, 4606.414929289984, 1) ),
                20: ( (0.8209052017854871, -0.5710644881985998, 0, 0), (0.3623391887903916, 0.5208625838861879, 0.7729246282621125, 0), (-0.44138980725459626, -0.6344978479284821, 0.6344978479284821, 0), (4600, 5200, 4600, 1) ),
            }
            uniform token[] xformOpOrder = ["xformOp:transform"]
        }
    }
}

