#usda 1.0
(
    defaultPrim = "World"
    endTimeCode = 20
    metersPerUnit = 1000
    startTimeCode = 1
    timeCodesPerSecond = 4
    upAxis = "Z"
)

def Xform "World" (
    kind = "assembly"
)
{
    def Scope "Materials"
    {
        def Material "Ocean"
        {
            token outputs:surface.connect = </World/Materials/Ocean/PreviewSurface.outputs:surface>

            def Shader "PreviewSurface"
            {
                uniform token info:id = "UsdPreviewSurface"
                color3f inputs:diffuseColor = (0.05, 0.2, 0.34)
                float inputs:metallic = 0
                float inputs:roughness = 0.42
                color3f inputs:specularColor = (0.16, 0.16, 0.16)
                token outputs:surface
            }
        }

        def Material "SeaIceAlbedo075"
        {
            token outputs:surface.connect = </World/Materials/SeaIceAlbedo075/PreviewSurface.outputs:surface>

            def Shader "PreviewSurface"
            {
                uniform token info:id = "UsdPreviewSurface"
                color3f inputs:diffuseColor = (0.68, 0.82, 0.86)
                float inputs:metallic = 0
                float inputs:roughness = 0.72
                color3f inputs:specularColor = (0.06, 0.06, 0.06)
                token outputs:surface
            }
        }

        def Material "SnowAlbedo090"
        {
            token outputs:surface.connect = </World/Materials/SnowAlbedo090/PreviewSurface.outputs:surface>

            def Shader "PreviewSurface"
            {
                uniform token info:id = "UsdPreviewSurface"
                color3f inputs:diffuseColor = (0.86, 0.91, 0.9)
                float inputs:metallic = 0
                float inputs:roughness = 0.78
                color3f inputs:specularColor = (0.04, 0.04, 0.04)
                token outputs:surface
            }
        }

        def Material "YoungIceAlbedo055"
        {
            token outputs:surface.connect = </World/Materials/YoungIceAlbedo055/PreviewSurface.outputs:surface>

            def Shader "PreviewSurface"
            {
                uniform token info:id = "UsdPreviewSurface"
                color3f inputs:diffuseColor = (0.48, 0.66, 0.72)
                float inputs:metallic = 0
                float inputs:roughness = 0.68
                color3f inputs:specularColor = (0.06, 0.06, 0.06)
                token outputs:surface
            }
        }

        def Material "MeltPondAlbedo035"
        {
            token outputs:surface.connect = </World/Materials/MeltPondAlbedo035/PreviewSurface.outputs:surface>

            def Shader "PreviewSurface"
            {
                uniform token info:id = "UsdPreviewSurface"
                color3f inputs:diffuseColor = (0.14, 0.38, 0.52)
                float inputs:metallic = 0
                float inputs:roughness = 0.45
                color3f inputs:specularColor = (0.12, 0.12, 0.12)
                token outputs:surface
            }
        }

        def Material "CloudShadow"
        {
            token outputs:surface.connect = </World/Materials/CloudShadow/PreviewSurface.outputs:surface>

            def Shader "PreviewSurface"
            {
                uniform token info:id = "UsdPreviewSurface"
                color3f inputs:diffuseColor = (0.005, 0.008, 0.008)
                float inputs:metallic = 0
                float inputs:roughness = 0.95
                color3f inputs:specularColor = (0, 0, 0)
                token outputs:surface
            }
        }

        def Material "CoolingProxy"
        {
            token outputs:surface.connect = </World/Materials/CoolingProxy/PreviewSurface.outputs:surface>

            def Shader "PreviewSurface"
            {
                uniform token info:id = "UsdPreviewSurface"
                color3f inputs:diffuseColor = (0.18, 0.46, 0.66)
                float inputs:metallic = 0
                float inputs:roughness = 0.86
                color3f inputs:specularColor = (0.02, 0.02, 0.02)
                token outputs:surface
            }
        }

        def Material "CloudBase"
        {
            token outputs:surface.connect = </World/Materials/CloudBase/PreviewSurface.outputs:surface>

            def Shader "PreviewSurface"
            {
                uniform token info:id = "UsdPreviewSurface"
                color3f inputs:diffuseColor = (0.78, 0.86, 0.9)
                float inputs:metallic = 0
                float inputs:roughness = 0.82
                color3f inputs:specularColor = (0.04, 0.04, 0.04)
                token outputs:surface
            }
        }

        def Material "CloudCore"
        {
            token outputs:surface.connect = </World/Materials/CloudCore/PreviewSurface.outputs:surface>

            def Shader "PreviewSurface"
            {
                uniform token info:id = "UsdPreviewSurface"
                color3f inputs:diffuseColor = (0.93, 0.96, 0.96)
                float inputs:metallic = 0
                float inputs:roughness = 0.62
                color3f inputs:specularColor = (0.05, 0.05, 0.05)
                token outputs:surface
            }
        }

        def Material "CloudWisp"
        {
            token outputs:surface.connect = </World/Materials/CloudWisp/PreviewSurface.outputs:surface>

            def Shader "PreviewSurface"
            {
                uniform token info:id = "UsdPreviewSurface"
                color3f inputs:diffuseColor = (0.72, 0.82, 0.88)
                float inputs:metallic = 0
                float inputs:roughness = 0.88
                color3f inputs:specularColor = (0.03, 0.03, 0.03)
                token outputs:surface
            }
        }

        def Material "DomainFrame"
        {
            token outputs:surface.connect = </World/Materials/DomainFrame/PreviewSurface.outputs:surface>

            def Shader "PreviewSurface"
            {
                uniform token info:id = "UsdPreviewSurface"
                color3f inputs:diffuseColor = (0.42, 0.58, 0.66)
                float inputs:metallic = 0
                float inputs:roughness = 0.85
                color3f inputs:specularColor = (0.02, 0.02, 0.02)
                token outputs:surface
            }
        }
    }

    def Xform "Surfaces" (
        kind = "group"
    )
    {
        def Mesh "Ocean_DarkLowAlbedo"
        {
            int[] faceVertexCounts = [4]
            int[] faceVertexIndices = [0, 1, 2, 3]
            point3f[] points = [(0, 0, 0), (50, 0, 0), (50, 20, 0), (0, 20, 0)]
            color3f[] primvars:displayColor = [(0.025, 0.12, 0.22)]
        }

        def Mesh "MarginalIce_Albedo050"
        {
            int[] faceVertexCounts = [4]
            int[] faceVertexIndices = [0, 1, 2, 3]
            point3f[] points = [(0, 20, 0.025), (50, 20, 0.025), (50, 30, 0.025), (0, 30, 0.025)]
            color3f[] primvars:displayColor = [(0.36, 0.53, 0.58)]
        }

        def Mesh "SeaIce_Albedo075"
        {
            int[] faceVertexCounts = [4]
            int[] faceVertexIndices = [0, 1, 2, 3]
            point3f[] points = [(0, 30, 0.04), (50, 30, 0.04), (50, 50, 0.04), (0, 50, 0.04)]
            color3f[] primvars:displayColor = [(0.56, 0.69, 0.72)]
        }

        def Mesh "SnowBand_Albedo090"
        {
            int[] faceVertexCounts = [4]
            int[] faceVertexIndices = [0, 1, 2, 3]
            point3f[] points = [(4, 39, 0.08), (47, 39, 0.08), (47, 48, 0.08), (4, 48, 0.08)]
            color3f[] primvars:displayColor = [(0.74, 0.82, 0.8)]
        }

        def Mesh "IcePatch_A_Albedo060"
        {
            int[] faceVertexCounts = [6]
            int[] faceVertexIndices = [0, 1, 2, 3, 4, 5]
            point3f[] points = [(4.8, 13.8, 0.08), (7.5, 17.8, 0.08), (13.8, 18.5, 0.08), (15.5, 15.6, 0.08), (12.2, 12.5, 0.08), (7, 12, 0.08)]
            color3f[] primvars:displayColor = [(0.34, 0.55, 0.62)]
        }

        def Mesh "IcePatch_B_Albedo058"
        {
            int[] faceVertexCounts = [6]
            int[] faceVertexIndices = [0, 1, 2, 3, 4, 5]
            point3f[] points = [(18.2, 10.2, 0.08), (21.6, 14.7, 0.08), (28.6, 14, 0.08), (30, 10.5, 0.08), (25.2, 8.2, 0.08), (20.5, 8.6, 0.08)]
            color3f[] primvars:displayColor = [(0.32, 0.52, 0.6)]
        }

        def Mesh "IcePatch_C_Albedo062"
        {
            int[] faceVertexCounts = [6]
            int[] faceVertexIndices = [0, 1, 2, 3, 4, 5]
            point3f[] points = [(34, 15.2, 0.08), (38, 19.5, 0.08), (46.5, 18, 0.08), (47.8, 14.4, 0.08), (41.5, 12.6, 0.08), (36, 13.2, 0.08)]
            color3f[] primvars:displayColor = [(0.37, 0.57, 0.64)]
        }

        def Mesh "YoungIce_Albedo055"
        {
            int[] faceVertexCounts = [6]
            int[] faceVertexIndices = [0, 1, 2, 3, 4, 5]
            point3f[] points = [(29.5, 24.5, 0.08), (47.5, 25, 0.08), (48, 33.2, 0.08), (42, 35, 0.08), (32, 33.5, 0.08), (28.5, 29, 0.08)]
            color3f[] primvars:displayColor = [(0.34, 0.55, 0.63)]
        }

        def Mesh "MeltPond_A"
        {
            int[] faceVertexCounts = [49]
            int[] faceVertexIndices = [0, 1, 2, 3, 4, 5, 6, 7, 8, 9, 10, 11, 12, 13, 14, 15, 16, 17, 18, 19, 20, 21, 22, 23, 24, 25, 26, 27, 28, 29, 30, 31, 32, 33, 34, 35, 36, 37, 38, 39, 40, 41, 42, 43, 44, 45, 46, 47, 48]
            point3f[] points = [(16, 33, 0.11), (21.4, 33, 0.11), (21.353802, 33.28716, 0.11), (21.216, 33.5694, 0.11), (20.988949, 33.841904, 0.11), (20.676537, 34.1, 0.11), (20.284107, 34.339275, 0.11), (19.818377, 34.555634, 0.11), (19.287312, 34.745377, 0.11), (18.7, 34.905254, 0.11), (18.06649, 35.032536, 0.11), (17.397623, 35.12504, 0.11), (16.704842, 35.18118, 0.11), (16, 35.2, 0.11), (15.295158, 35.18118, 0.11), (14.602377, 35.12504, 0.11), (13.93351, 35.032536, 0.11), (13.3, 34.905254, 0.11), (12.712688, 34.745377, 0.11), (12.181623, 34.555634, 0.11), (11.715892, 34.339275, 0.11), (11.3234625, 34.1, 0.11), (11.01105, 33.841904, 0.11), (10.784, 33.5694, 0.11), (10.646197, 33.28716, 0.11), (10.6, 33, 0.11), (10.646197, 32.71284, 0.11), (10.784, 32.4306, 0.11), (11.01105, 32.158096, 0.11), (11.3234625, 31.9, 0.11), (11.715892, 31.660725, 0.11), (12.181623, 31.444365, 0.11), (12.712688, 31.254623, 0.11), (13.3, 31.094744, 0.11), (13.93351, 30.967464, 0.11), (14.602377, 30.874964, 0.11), (15.295158, 30.81882, 0.11), (16, 30.8, 0.11), (16.704842, 30.81882, 0.11), (17.397623, 30.874964, 0.11), (18.06649, 30.967464, 0.11), (18.7, 31.094744, 0.11), (19.287312, 31.254623, 0.11), (19.818377, 31.444365, 0.11), (20.284107, 31.660725, 0.11), (20.676537, 31.9, 0.11), (20.988949, 32.158096, 0.11), (21.216, 32.4306, 0.11), (21.353802, 32.71284, 0.11)]
            color3f[] primvars:displayColor = [(0.08, 0.32, 0.48)]
        }

        def Mesh "MeltPond_B"
        {
            int[] faceVertexCounts = [49]
            int[] faceVertexIndices = [0, 1, 2, 3, 4, 5, 6, 7, 8, 9, 10, 11, 12, 13, 14, 15, 16, 17, 18, 19, 20, 21, 22, 23, 24, 25, 26, 27, 28, 29, 30, 31, 32, 33, 34, 35, 36, 37, 38, 39, 40, 41, 42, 43, 44, 45, 46, 47, 48]
            point3f[] points = [(38, 41, 0.11), (41.8, 41, 0.11), (41.76749, 41.221893, 0.11), (41.670517, 41.43999, 0.11), (41.510742, 41.650562, 0.11), (41.290897, 41.85, 0.11), (41.014744, 42.034893, 0.11), (40.687004, 42.20208, 0.11), (40.313293, 42.3487, 0.11), (39.9, 42.472244, 0.11), (39.454197, 42.570595, 0.11), (38.983513, 42.642075, 0.11), (38.496, 42.685455, 0.11), (38, 42.7, 0.11), (37.504, 42.685455, 0.11), (37.016487, 42.642075, 0.11), (36.545803, 42.570595, 0.11), (36.1, 42.472244, 0.11), (35.686707, 42.3487, 0.11), (35.312996, 42.20208, 0.11), (34.985256, 42.034893, 0.11), (34.709103, 41.85, 0.11), (34.489258, 41.650562, 0.11), (34.329483, 41.43999, 0.11), (34.23251, 41.221893, 0.11), (34.2, 41, 0.11), (34.23251, 40.778107, 0.11), (34.329483, 40.56001, 0.11), (34.489258, 40.349438, 0.11), (34.709103, 40.15, 0.11), (34.985256, 39.965107, 0.11), (35.312996, 39.79792, 0.11), (35.686707, 39.6513, 0.11), (36.1, 39.527756, 0.11), (36.545803, 39.429405, 0.11), (37.016487, 39.357925, 0.11), (37.504, 39.314545, 0.11), (38, 39.3, 0.11), (38.496, 39.314545, 0.11), (38.983513, 39.357925, 0.11), (39.454197, 39.429405, 0.11), (39.9, 39.527756, 0.11), (40.313293, 39.6513, 0.11), (40.687004, 39.79792, 0.11), (41.014744, 39.965107, 0.11), (41.290897, 40.15, 0.11), (41.510742, 40.349438, 0.11), (41.670517, 40.56001, 0.11), (41.76749, 40.778107, 0.11)]
            color3f[] primvars:displayColor = [(0.08, 0.32, 0.48)]
        }

        def Mesh "MeltPond_C"
        {
            int[] faceVertexCounts = [49]
            int[] faceVertexIndices = [0, 1, 2, 3, 4, 5, 6, 7, 8, 9, 10, 11, 12, 13, 14, 15, 16, 17, 18, 19, 20, 21, 22, 23, 24, 25, 26, 27, 28, 29, 30, 31, 32, 33, 34, 35, 36, 37, 38, 39, 40, 41, 42, 43, 44, 45, 46, 47, 48]
            point3f[] points = [(26, 28.5, 0.11), (28.8, 28.5, 0.11), (28.776045, 28.656631, 0.11), (28.704592, 28.810583, 0.11), (28.586863, 28.95922, 0.11), (28.424871, 29.1, 0.11), (28.22139, 29.230515, 0.11), (27.979898, 29.348528, 0.11), (27.704533, 29.452024, 0.11), (27.4, 29.53923, 0.11), (27.071514, 29.608656, 0.11), (26.724693, 29.659111, 0.11), (26.365473, 29.689734, 0.11), (26, 29.7, 0.11), (25.634527, 29.689734, 0.11), (25.275307, 29.659111, 0.11), (24.928486, 29.608656, 0.11), (24.6, 29.53923, 0.11), (24.295467, 29.452024, 0.11), (24.020102, 29.348528, 0.11), (23.77861, 29.230515, 0.11), (23.575129, 29.1, 0.11), (23.413137, 28.95922, 0.11), (23.295408, 28.810583, 0.11), (23.223955, 28.656631, 0.11), (23.2, 28.5, 0.11), (23.223955, 28.343369, 0.11), (23.295408, 28.189417, 0.11), (23.413137, 28.04078, 0.11), (23.575129, 27.9, 0.11), (23.77861, 27.769485, 0.11), (24.020102, 27.651472, 0.11), (24.295467, 27.547976, 0.11), (24.6, 27.46077, 0.11), (24.928486, 27.391344, 0.11), (25.275307, 27.340889, 0.11), (25.634527, 27.310266, 0.11), (26, 27.3, 0.11), (26.365473, 27.310266, 0.11), (26.724693, 27.340889, 0.11), (27.071514, 27.391344, 0.11), (27.4, 27.46077, 0.11), (27.704533, 27.547976, 0.11), (27.979898, 27.651472, 0.11), (28.22139, 27.769485, 0.11), (28.424871, 27.9, 0.11), (28.586863, 28.04078, 0.11), (28.704592, 28.189417, 0.11), (28.776045, 28.343369, 0.11)]
            color3f[] primvars:displayColor = [(0.08, 0.32, 0.48)]
        }

        def BasisCurves "IceLead_DarkWater"
        {
            int[] curveVertexCounts = [5]
            point3f[] points = [(0, 29.2, 0.13), (8, 28.6, 0.13), (18, 30.1, 0.13), (31, 29.4, 0.13), (50, 30.4, 0.13)]
            color3f[] primvars:displayColor = [(0.015, 0.08, 0.14)]
            uniform token type = "linear"
            float[] widths = [0.35, 0.35, 0.35, 0.35, 0.35]
        }

        def BasisCurves "SnowCrack_01"
        {
            int[] curveVertexCounts = [4]
            point3f[] points = [(7, 41.5, 0.14), (16, 42.5, 0.14), (23, 41.2, 0.14), (35, 43, 0.14)]
            color3f[] primvars:displayColor = [(0.42, 0.55, 0.58)]
            uniform token type = "linear"
            float[] widths = [0.12, 0.12, 0.12, 0.12]
        }

        def BasisCurves "SnowCrack_02"
        {
            int[] curveVertexCounts = [3]
            point3f[] points = [(31, 33.5, 0.14), (37, 36.2, 0.14), (44, 35, 0.14)]
            color3f[] primvars:displayColor = [(0.36, 0.5, 0.55)]
            uniform token type = "linear"
            float[] widths = [0.12, 0.12, 0.12]
        }
    }

    def Xform "Atmosphere" (
        kind = "group"
    )
    {
        def Xform "DomainFrame"
        {
            def BasisCurves "Edge_00"
            {
                int[] curveVertexCounts = [2]
                rel material:binding = </World/Materials/DomainFrame>
                point3f[] points = [(0, 0, 0), (50, 0, 0)]
                color3f[] primvars:displayColor = [(0.42, 0.58, 0.66)]
                uniform token type = "linear"
                float[] widths = [0.04, 0.04]
            }

            def BasisCurves "Edge_01"
            {
                int[] curveVertexCounts = [2]
                rel material:binding = </World/Materials/DomainFrame>
                point3f[] points = [(50, 0, 0), (50, 50, 0)]
                color3f[] primvars:displayColor = [(0.42, 0.58, 0.66)]
                uniform token type = "linear"
                float[] widths = [0.04, 0.04]
            }

            def BasisCurves "Edge_02"
            {
                int[] curveVertexCounts = [2]
                rel material:binding = </World/Materials/DomainFrame>
                point3f[] points = [(50, 50, 0), (0, 50, 0)]
                color3f[] primvars:displayColor = [(0.42, 0.58, 0.66)]
                uniform token type = "linear"
                float[] widths = [0.04, 0.04]
            }

            def BasisCurves "Edge_03"
            {
                int[] curveVertexCounts = [2]
                rel material:binding = </World/Materials/DomainFrame>
                point3f[] points = [(0, 50, 0), (0, 0, 0)]
                color3f[] primvars:displayColor = [(0.42, 0.58, 0.66)]
                uniform token type = "linear"
                float[] widths = [0.04, 0.04]
            }

            def BasisCurves "Edge_04"
            {
                int[] curveVertexCounts = [2]
                rel material:binding = </World/Materials/DomainFrame>
                point3f[] points = [(0, 0, 25), (50, 0, 25)]
                color3f[] primvars:displayColor = [(0.42, 0.58, 0.66)]
                uniform token type = "linear"
                float[] widths = [0.04, 0.04]
            }

            def BasisCurves "Edge_05"
            {
                int[] curveVertexCounts = [2]
                rel material:binding = </World/Materials/DomainFrame>
                point3f[] points = [(50, 0, 25), (50, 50, 25)]
                color3f[] primvars:displayColor = [(0.42, 0.58, 0.66)]
                uniform token type = "linear"
                float[] widths = [0.04, 0.04]
            }

            def BasisCurves "Edge_06"
            {
                int[] curveVertexCounts = [2]
                rel material:binding = </World/Materials/DomainFrame>
                point3f[] points = [(50, 50, 25), (0, 50, 25)]
                color3f[] primvars:displayColor = [(0.42, 0.58, 0.66)]
                uniform token type = "linear"
                float[] widths = [0.04, 0.04]
            }

            def BasisCurves "Edge_07"
            {
                int[] curveVertexCounts = [2]
                rel material:binding = </World/Materials/DomainFrame>
                point3f[] points = [(0, 50, 25), (0, 0, 25)]
                color3f[] primvars:displayColor = [(0.42, 0.58, 0.66)]
                uniform token type = "linear"
                float[] widths = [0.04, 0.04]
            }

            def BasisCurves "Edge_08"
            {
                int[] curveVertexCounts = [2]
                rel material:binding = </World/Materials/DomainFrame>
                point3f[] points = [(0, 0, 0), (0, 0, 25)]
                color3f[] primvars:displayColor = [(0.42, 0.58, 0.66)]
                uniform token type = "linear"
                float[] widths = [0.04, 0.04]
            }

            def BasisCurves "Edge_09"
            {
                int[] curveVertexCounts = [2]
                rel material:binding = </World/Materials/DomainFrame>
                point3f[] points = [(50, 0, 0), (50, 0, 25)]
                color3f[] primvars:displayColor = [(0.42, 0.58, 0.66)]
                uniform token type = "linear"
                float[] widths = [0.04, 0.04]
            }

            def BasisCurves "Edge_10"
            {
                int[] curveVertexCounts = [2]
                rel material:binding = </World/Materials/DomainFrame>
                point3f[] points = [(50, 50, 0), (50, 50, 25)]
                color3f[] primvars:displayColor = [(0.42, 0.58, 0.66)]
                uniform token type = "linear"
                float[] widths = [0.04, 0.04]
            }

            def BasisCurves "Edge_11"
            {
                int[] curveVertexCounts = [2]
                rel material:binding = </World/Materials/DomainFrame>
                point3f[] points = [(0, 50, 0), (0, 50, 25)]
                color3f[] primvars:displayColor = [(0.42, 0.58, 0.66)]
                uniform token type = "linear"
                float[] widths = [0.04, 0.04]
            }
        }
    }

    def Xform "CloudSystem" (
        kind = "group"
    )
    {
        def Points "LayeredCloud"
        {
            point3f[] points.timeSamples = {
                1: [(5.20809, 29.279108, 10.363579), (4.7279367, 27.781082, 9.032389), (6.2044086, 24.237589, 8.869422), (19.19806, 30.814941, 9.94819), (21.272757, 27.36395, 9.877061), (12.638844, 28.593718, 9.651086), (13.714498, 30.65392, 8.7541485), (3.8821812, 29.943169, 9.634423), (4.267863, 28.00673, 9.523193), (21.478485, 27.914774, 10.212388), (10.184618, 30.549028, 9.220272), (12.614125, 24.349127, 10.22385), (20.442575, 26.608774, 8.700981), (17.504879, 25.875172, 10.464646), (18.757294, 30.038397, 10.101319), (16.677725, 29.741312, 10.435337), (15.477954, 29.944155, 8.881884), (13.165952, 25.661118, 9.706731), (14.959346, 32.621315, 8.93574), (16.583546, 30.51462, 9.0831585), (20.3735, 27.055681, 9.247461), (13.457681, 31.531485, 10.237879), (19.63281, 31.40062, 9.083838), (12.774156, 24.70718, 9.233384), (18.120222, 30.37515, 9.1374235), (7.5723352, 30.817553, 10.426442), (4.1097755, 25.561844, 9.02909), (19.20774, 25.145824, 9.149097), (11.3882885, 22.387894, 9.053862), (17.449013, 24.961, 9.458623), (21.046896, 29.370039, 9.129133), (11.621909, 33.258953, 9.77364), (15.640946, 32.3922, 8.823797), (3.8322117, 26.048576, 9.805745), (15.725066, 26.700142, 8.729835), (9.798774, 28.477118, 9.017257), (8.902248, 27.078348, 9.351861), (19.642117, 27.425274, 9.944199), (13.131195, 28.83854, 8.732209), (9.173588, 22.576908, 8.738267), (3.9309535, 28.552156, 9.274028), (18.249891, 29.952154, 10.026609), (11.354187, 23.150599, 10.12788), (7.304955, 31.851206, 10.321505), (4.6721315, 30.564781, 10.254251), (7.8453217, 25.464716, 9.748822), (18.65218, 30.239454, 10.48798), (11.191796, 24.419004, 10.023068), (3.9019244, 29.938751, 8.850808), (19.23788, 28.836906, 9.565722), (9.863339, 24.123684, 9.806106), (11.963003, 28.616331, 9.2418585), (13.148662, 30.283371, 10.330298), (3.6195176, 29.954245, 9.288529), (13.98264, 31.609726, 10.150779), (16.668816, 25.635874, 12.799458), (16.734308, 29.840628, 13.409029), (11.853863, 23.338106, 12.06431), (10.003198, 28.204268, 11.913793), (10.037572, 25.303461, 12.156892), (18.17869, 27.16665, 11.57923), (14.494353, 26.857689, 13.100715), (11.242753, 31.148369, 11.445873), (12.443303, 27.69373, 13.391204), (14.460304, 28.23787, 12.910032), (9.620817, 24.904596, 13.337724), (12.249643, 25.69957, 12.540341), (18.299171, 27.704384, 13.11401), (12.923769, 30.061705, 13.073547), (8.919973, 24.979633, 12.344439), (15.218712, 26.778017, 13.638249), (16.729006, 29.65892, 12.901316), (9.724868, 29.819782, 13.51037), (17.977345, 26.471931, 12.963174), (12.389169, 23.581373, 12.939879), (15.017908, 31.563662, 13.753183), (7.4422317, 26.59958, 12.168947), (16.048828, 25.455421, 11.598654), (7.6684713, 26.301304, 12.569874), (14.143284, 26.462387, 13.319664), (10.336934, 30.861677, 11.737201), (7.5776772, 27.112091, 13.415943), (18.130207, 26.467598, 13.677971), (14.407523, 30.641783, 12.096407), (10.246252, 25.063162, 13.424696), (11.866198, 30.015097, 13.428625), (15.174767, 31.419533, 13.7242565), (10.686195, 26.626783, 12.686169), (12.579546, 27.049887, 13.726572), (8.417893, 29.803057, 12.75088), (12.848862, 26.447235, 12.692917), (19.981087, 26.36804, 12.046113), (16.71907, 29.574074, 13.357721), (9.600253, 27.86408, 11.859484), (15.746078, 26.783663, 13.270293), (14.647982, 29.46953, 13.048882), (10.112924, 30.23239, 11.651725), (6.8328834, 21.5665, 10.651218), (14.576686, 34.19768, 10.92662), (14.557607, 22.68887, 10.549386), (16.630877, 34.49478, 11.972768), (20.77852, 22.455494, 11.729697), (21.650873, 33.810795, 10.792974), (8.644742, 20.005268, 12.052591), (9.047602, 35.125046, 10.670895), (20.311203, 21.850782, 11.837859), (12.152798, 34.992687, 10.13907), (17.46528, 20.283606, 12.2304325), (14.107938, 35.226093, 11.206128), (8.091139, 22.974234, 10.333581), (14.981758, 34.447437, 11.351233), (8.006189, 22.547476, 11.948471), (22.110954, 33.10479, 10.2362795), (13.279345, 20.752895, 10.81902), (14.290456, 34.17626, 11.422046), (17.819572, 20.49836, 10.498793), (18.54735, 34.096966, 10.529277), (14.238655, 23.150663, 12.065007), (17.88876, 35.55434, 11.48465), (15.892498, 21.586277, 12.261896), (9.407021, 35.716156, 11.737757), (19.978193, 21.901962, 12.072399), (17.701178, 35.255264, 11.7835045), (18.230053, 22.974236, 10.851781), (4.7012973, 33.938038, 11.505167), (8.910037, 20.177038, 11.565406), (17.035463, 34.622643, 11.272776), (23.497854, 21.14475, 11.642752), (23.121647, 32.873024, 11.453872), (9.376037, 21.915022, 10.211005), (11.637857, 33.115036, 10.651953), (14.951097, 21.574978, 12.2277), (23.406998, 34.84164, 11.880962), (15.853195, 20.770405, 10.19925), (7.5387, 34.309635, 10.47207), (16.11226, 23.012655, 12.179602), (14.508407, 34.713062, 10.904265), (16.947119, 21.40594, 10.7237625), (10.124769, 32.84484, 10.6390505), (7.475161, 20.785137, 10.957902), (18.718899, 32.960506, 12.275292), (5.896581, 20.302237, 11.044934), (22.990194, 33.57987, 11.25139), (18.232018, 21.701279, 12.253406), (15.9688425, 33.168297, 11.473346)],
                5: [(10.050196, 30.507534, 10.578553), (9.570042, 29.009508, 9.247363), (11.0465145, 25.466015, 9.084396), (24.040165, 32.043365, 10.163164), (26.114862, 28.592377, 10.092035), (17.48095, 29.822144, 9.86606), (18.556602, 31.882345, 8.969123), (8.724287, 31.171595, 9.849398), (9.109968, 29.235155, 9.738168), (26.320591, 29.1432, 10.427362), (15.026724, 31.777454, 9.435246), (17.45623, 25.577553, 10.438825), (25.284681, 27.8372, 8.915956), (22.346985, 27.103598, 10.679621), (23.5994, 31.266823, 10.316294), (21.51983, 30.969738, 10.650311), (20.320059, 31.17258, 9.096858), (18.008057, 26.889544, 9.921705), (19.80145, 33.84974, 9.150715), (21.425652, 31.743046, 9.298133), (25.215607, 28.284107, 9.462436), (18.299786, 32.75991, 10.452853), (24.474916, 32.629044, 9.298813), (17.61626, 25.935606, 9.448359), (22.962328, 31.603577, 9.352398), (12.41444, 32.04598, 10.641417), (8.951881, 26.79027, 9.244064), (24.049847, 26.37425, 9.364072), (16.230394, 23.61632, 9.268836), (22.291119, 26.189426, 9.673597), (25.889002, 30.598465, 9.344108), (16.464014, 34.487377, 9.988614), (20.483051, 33.620625, 9.038772), (8.674317, 27.277002, 10.02072), (20.567171, 27.928568, 8.944809), (14.640879, 29.705544, 9.232231), (13.744354, 28.306774, 9.566835), (24.484222, 28.6537, 10.159173), (17.9733, 30.066965, 8.947184), (14.015694, 23.805334, 8.953241), (8.773059, 29.780582, 9.489002), (23.091997, 31.18058, 10.241584), (16.196293, 24.379025, 10.3428545), (12.14706, 33.07963, 10.536479), (9.514236, 31.793207, 10.469225), (12.6874275, 26.693142, 9.963797), (23.494286, 31.46788, 10.702954), (16.033901, 25.64743, 10.238043), (8.74403, 31.167177, 9.065783), (24.079987, 30.065332, 9.780697), (14.705444, 25.35211, 10.02108), (16.805109, 29.844757, 9.456833), (17.990767, 31.511797, 10.545273), (8.461623, 31.18267, 9.503504), (18.824745, 32.83815, 10.365753), (21.510921, 26.8643, 13.014432), (21.576414, 31.069054, 13.624003), (16.695969, 24.566532, 12.2792845), (14.845303, 29.432693, 12.128767), (14.879677, 26.531887, 12.371866), (23.020796, 28.395077, 11.794205), (19.336458, 28.086115, 13.315689), (16.084858, 32.376793, 11.660848), (17.285408, 28.922155, 13.606178), (19.30241, 29.466295, 13.125007), (14.462923, 26.133022, 13.552698), (17.09175, 26.927996, 12.755316), (23.141277, 28.93281, 13.328984), (17.765875, 31.29013, 13.288522), (13.762079, 26.20806, 12.559413), (20.060818, 28.006443, 13.853224), (21.571112, 30.887346, 13.11629), (14.566973, 31.048208, 13.725345), (22.81945, 27.700357, 13.178148), (17.231274, 24.8098, 13.154854), (19.860014, 32.792088, 13.968158), (12.284337, 27.828007, 12.383922), (20.890934, 26.683847, 11.813628), (12.510576, 27.52973, 12.784848), (18.98539, 27.690813, 13.534638), (15.179039, 32.090103, 11.952175), (12.419783, 28.340517, 13.630918), (22.972313, 27.696024, 13.892945), (19.249628, 31.870209, 12.311381), (15.088358, 26.291588, 13.63967), (16.708303, 31.243523, 13.6435995), (20.016872, 32.647957, 13.939231), (15.528301, 27.85521, 12.901143), (17.421652, 28.278313, 13.941546), (13.259998, 31.031483, 12.965855), (17.690968, 27.675661, 12.907891), (24.823193, 27.596466, 12.261087), (21.561176, 30.8025, 13.572696), (14.442358, 29.092506, 12.074458), (20.588182, 28.012089, 13.485268), (19.490088, 30.697956, 13.263856), (14.955029, 31.460815, 11.866699), (11.674989, 22.794926, 10.866193), (19.41879, 35.426105, 11.141594), (19.399712, 23.917295, 10.76436), (21.472982, 35.723206, 12.187742), (25.620626, 23.68392, 11.944672), (26.49298, 35.03922, 11.007949), (13.486847, 21.233694, 12.267566), (13.889708, 36.35347, 10.885869), (25.153309, 23.079208, 12.052834), (16.994904, 36.22111, 10.354044), (22.307386, 21.512032, 12.445407), (18.950043, 36.454517, 11.421103), (12.933245, 24.20266, 10.548555), (19.823864, 35.67586, 11.566207), (12.848295, 23.775902, 12.163445), (26.95306, 34.333214, 10.451254), (18.12145, 21.981321, 11.033995), (19.13256, 35.404686, 11.63702), (22.661678, 21.726786, 10.713767), (23.389456, 35.32539, 10.744251), (19.080761, 24.37909, 12.279982), (22.730865, 36.782764, 11.699624), (20.734604, 22.814703, 12.476871), (14.249126, 36.94458, 11.952731), (24.8203, 23.130388, 12.287374), (22.543283, 36.48369, 11.998479), (23.072159, 24.202662, 11.066755), (9.543403, 35.166462, 11.720141), (13.752142, 21.405464, 11.78038), (21.87757, 35.851067, 11.48775), (28.33996, 22.373177, 11.857726), (27.963753, 34.101448, 11.668846), (14.218142, 23.143448, 10.42598), (16.479963, 34.34346, 10.866927), (19.793201, 22.803404, 12.442675), (28.249104, 36.070065, 12.095937), (20.695301, 21.99883, 10.414225), (12.380806, 35.53806, 10.687044), (20.954367, 24.241081, 12.394576), (19.350512, 35.941486, 11.11924), (21.789225, 22.634365, 10.938737), (14.966875, 34.073265, 10.854025), (12.317266, 22.013563, 11.172876), (23.561005, 34.18893, 12.490267), (10.738687, 21.530663, 11.259909), (27.8323, 34.808292, 11.466365), (23.074123, 22.929705, 12.46838), (20.810947, 34.39672, 11.68832)],
                10: [(16.102827, 31.272278, 10.712383), (15.622674, 29.774252, 9.381193), (17.099146, 26.230759, 9.218226), (30.092796, 32.80811, 10.296994), (32.167496, 29.35712, 10.225865), (23.53358, 30.586887, 9.99989), (24.609234, 32.647087, 9.102953), (14.776918, 31.936338, 9.983228), (15.1626, 29.999899, 9.871998), (32.373222, 29.907944, 10.5611925), (21.079355, 32.5422, 9.569077), (23.508862, 26.342297, 10.572655), (31.337313, 28.601944, 9.049786), (28.399616, 27.868341, 10.813451), (29.65203, 32.031567, 10.450124), (27.572462, 31.734482, 10.784142), (26.372692, 31.937325, 9.230688), (24.060688, 27.654287, 10.055535), (25.854084, 34.614483, 9.284545), (27.478283, 32.50779, 9.431963), (31.268238, 29.048851, 9.596266), (24.352417, 33.524654, 10.586683), (30.527548, 33.393787, 9.432643), (23.668892, 26.70035, 9.582189), (29.01496, 32.36832, 9.486228), (18.467072, 32.810722, 10.775247), (15.004513, 27.555014, 9.377894), (30.102478, 27.138994, 9.497902), (22.283026, 24.381063, 9.402666), (28.34375, 26.95417, 9.807427), (31.941633, 31.363209, 9.477938), (22.516647, 35.25212, 10.122444), (26.535683, 34.38537, 9.172602), (14.726949, 28.041746, 10.15455), (26.619804, 28.693312, 9.078639), (20.693512, 30.470287, 9.366061), (19.796986, 29.071518, 9.700665), (30.536854, 29.418444, 10.293003), (24.025932, 30.831709, 9.081014), (20.068325, 24.570078, 9.087071), (14.825691, 30.545326, 9.622832), (29.144629, 31.945324, 10.375414), (22.248924, 25.143768, 10.476685), (18.199692, 33.844376, 10.670309), (15.566869, 32.55795, 10.603055), (18.740059, 27.457886, 10.097627), (29.546917, 32.232624, 10.836784), (22.086533, 26.412174, 10.371873), (14.796661, 31.931921, 9.199613), (30.132618, 30.830076, 9.914527), (20.758076, 26.116854, 10.15491), (22.85774, 30.6095, 9.590663), (24.0434, 32.27654, 10.679103), (14.514255, 31.947414, 9.637334), (24.877377, 33.602894, 10.499583), (27.563553, 27.629044, 13.148262), (27.629045, 31.833797, 13.7578335), (22.7486, 25.331276, 12.413115), (20.897934, 30.197437, 12.262597), (20.932308, 27.29663, 12.505696), (29.073427, 29.15982, 11.928035), (25.389091, 28.850859, 13.449519), (22.13749, 33.141537, 11.794678), (23.33804, 29.6869, 13.740008), (25.355042, 30.23104, 13.258837), (20.515554, 26.897766, 13.686528), (23.14438, 27.69274, 12.889146), (29.193909, 29.697554, 13.462814), (23.818506, 32.054874, 13.422352), (19.81471, 26.972803, 12.693243), (26.11345, 28.771187, 13.987054), (27.623743, 31.65209, 13.25012), (20.619606, 31.812952, 13.859175), (28.872082, 28.465101, 13.311978), (23.283905, 25.574543, 13.288684), (25.912645, 33.55683, 14.101988), (18.33697, 28.59275, 12.517752), (26.943565, 27.448591, 11.947458), (18.56321, 28.294474, 12.918678), (25.038021, 28.455557, 13.668468), (21.23167, 32.854847, 12.086005), (18.472414, 29.10526, 13.764748), (29.024944, 28.460768, 14.026775), (25.302261, 32.634953, 12.445211), (21.14099, 27.056332, 13.7735), (22.760935, 32.008266, 13.77743), (26.069504, 33.4127, 14.073061), (21.580933, 28.619953, 13.034973), (23.474283, 29.043056, 14.0753765), (19.31263, 31.796227, 13.099685), (23.743599, 28.440405, 13.041721), (30.875824, 28.36121, 12.3949175), (27.613808, 31.567244, 13.706526), (20.494991, 29.85725, 12.208288), (26.640816, 28.776833, 13.619098), (25.542719, 31.4627, 13.397686), (21.00766, 32.22556, 12.000529), (17.727621, 23.55967, 11.000023), (25.471424, 36.19085, 11.275424), (25.452343, 24.68204, 10.8981905), (27.525614, 36.48795, 12.321572), (31.673258, 24.448664, 12.078502), (32.54561, 35.803963, 11.141779), (19.539478, 21.998438, 12.401396), (19.942339, 37.118214, 11.019699), (31.20594, 23.843952, 12.186664), (23.047535, 36.985855, 10.487874), (28.360018, 22.276775, 12.579237), (25.002674, 37.21926, 11.554933), (18.985876, 24.967403, 10.682385), (25.876495, 36.440605, 11.700037), (18.900927, 24.540646, 12.297276), (33.00569, 35.097958, 10.585084), (24.174082, 22.746065, 11.167825), (25.185192, 36.16943, 11.77085), (28.71431, 22.49153, 10.847597), (29.442087, 36.090134, 10.878081), (25.133392, 25.143833, 12.413812), (28.783497, 37.54751, 11.833454), (26.787235, 23.579447, 12.610701), (20.301758, 37.709324, 12.086561), (30.87293, 23.895132, 12.421204), (28.595915, 37.248432, 12.132309), (29.12479, 24.967405, 11.200585), (15.596035, 35.931206, 11.8539715), (19.804775, 22.170208, 11.91421), (27.9302, 36.61581, 11.62158), (34.392593, 23.13792, 11.991556), (34.016384, 34.86619, 11.802676), (20.270775, 23.908192, 10.55981), (22.532595, 35.108204, 11.000757), (25.845833, 23.568148, 12.576505), (34.301735, 36.83481, 12.229767), (26.747932, 22.763575, 10.548055), (18.433437, 36.302803, 10.820874), (27.006998, 25.005825, 12.528406), (25.403145, 36.70623, 11.25307), (27.841856, 23.399109, 11.072567), (21.019506, 34.83801, 10.987855), (18.369898, 22.778307, 11.306706), (29.613636, 34.953674, 12.624097), (16.791319, 22.295406, 11.393739), (33.884933, 35.573036, 11.600195), (29.126755, 23.694448, 12.60221), (26.863579, 35.161465, 11.82215)],
                15: [(22.155458, 30.750555, 10.621082), (21.675304, 29.25253, 9.289892), (23.151777, 25.709036, 9.126925), (36.145428, 32.28639, 10.205693), (38.220123, 28.835398, 10.134564), (29.586212, 30.065165, 9.908589), (30.661865, 32.125366, 9.011652), (20.82955, 31.414616, 9.891927), (21.21523, 29.478176, 9.780697), (38.425854, 29.38622, 10.469892), (27.131987, 32.020477, 9.477776), (29.561493, 25.820574, 10.481354), (37.389946, 28.080221, 8.958485), (34.452248, 27.346619, 10.72215), (35.704662, 31.509844, 10.358823), (33.62509, 31.212759, 10.692841), (32.425323, 31.415602, 9.139387), (30.11332, 27.132565, 9.964234), (31.906715, 34.092762, 9.193244), (33.530914, 31.986067, 9.340662), (37.32087, 28.527128, 9.504965), (30.405048, 33.002934, 10.495382), (36.580177, 32.872066, 9.341342), (29.721523, 26.178627, 9.490888), (35.06759, 31.846598, 9.394927), (24.519703, 32.289, 10.683946), (21.057144, 27.03329, 9.286593), (36.15511, 26.617271, 9.406601), (28.335657, 23.85934, 9.311365), (34.39638, 26.432447, 9.716126), (37.994263, 30.841486, 9.386637), (28.569279, 34.7304, 10.031143), (32.588314, 33.863647, 9.081301), (20.779581, 27.520023, 10.063249), (32.672436, 28.171589, 8.987338), (26.746143, 29.948565, 9.27476), (25.849617, 28.549795, 9.6093645), (36.589485, 28.89672, 10.201702), (30.078564, 30.309986, 8.989713), (26.120956, 24.048355, 8.99577), (20.878323, 30.023603, 9.531531), (35.197258, 31.423601, 10.284113), (28.301556, 24.622046, 10.385384), (24.252323, 33.322655, 10.579008), (21.6195, 32.03623, 10.511754), (24.79269, 26.936163, 10.006326), (35.59955, 31.710901, 10.745483), (28.139164, 25.890451, 10.280572), (20.849293, 31.410198, 9.108312), (36.18525, 30.308353, 9.823226), (26.810707, 25.59513, 10.063609), (28.910372, 30.087778, 9.499362), (30.096031, 31.754818, 10.587802), (20.566887, 31.425692, 9.546033), (30.930008, 33.081173, 10.408282), (33.616184, 27.10732, 13.056961), (33.68168, 31.312075, 13.6665325), (28.801231, 24.809553, 12.321814), (26.950565, 29.675714, 12.171296), (26.98494, 26.774908, 12.414395), (35.12606, 28.638098, 11.836734), (31.441723, 28.329136, 13.358218), (28.19012, 32.619816, 11.703377), (29.39067, 29.165176, 13.648707), (31.407673, 29.709316, 13.167536), (26.568186, 26.376043, 13.595227), (29.197012, 27.171017, 12.797845), (35.24654, 29.17583, 13.371513), (29.871138, 31.533152, 13.331051), (25.867342, 26.45108, 12.601942), (32.16608, 28.249464, 13.895753), (33.676376, 31.130367, 13.158819), (26.672237, 31.29123, 13.767874), (34.924713, 27.943378, 13.220677), (29.336536, 25.05282, 13.197383), (31.965277, 33.03511, 14.010687), (24.3896, 28.071028, 12.426451), (32.996197, 26.926868, 11.856157), (24.61584, 27.77275, 12.827377), (31.090652, 27.933834, 13.5771675), (27.284302, 32.333126, 11.994704), (24.525045, 28.583538, 13.673447), (35.077576, 27.939045, 13.935474), (31.354893, 32.11323, 12.35391), (27.19362, 26.534609, 13.6821995), (28.813566, 31.486544, 13.686129), (32.122135, 32.89098, 13.98176), (27.633564, 28.09823, 12.943672), (29.526915, 28.521334, 13.984076), (25.365261, 31.274504, 13.008384), (29.79623, 27.918682, 12.95042), (36.928455, 27.839487, 12.303617), (33.66644, 31.04552, 13.615225), (26.547623, 29.335527, 12.116987), (32.693447, 28.25511, 13.527797), (31.59535, 30.940977, 13.306385), (27.060291, 31.703836, 11.909228), (23.780252, 23.037947, 10.908722), (31.524055, 35.66913, 11.184123), (31.504974, 24.160316, 10.80689), (33.578247, 35.96623, 12.230271), (37.72589, 23.92694, 11.987201), (38.598244, 35.28224, 11.050478), (25.59211, 21.476715, 12.310095), (25.99497, 36.596493, 10.928398), (37.25857, 23.32223, 12.095363), (29.100166, 36.464134, 10.396573), (34.41265, 21.755053, 12.487936), (31.055305, 36.69754, 11.463632), (25.038507, 24.44568, 10.5910845), (31.929127, 35.918884, 11.608736), (24.953558, 24.018923, 12.205975), (39.058323, 34.576237, 10.493783), (30.226713, 22.224342, 11.076524), (31.237823, 35.64771, 11.679549), (34.76694, 21.969807, 10.756296), (35.49472, 35.568413, 10.78678), (31.186024, 24.62211, 12.322511), (34.83613, 37.025787, 11.742153), (32.839867, 23.057724, 12.5194), (26.35439, 37.187603, 11.99526), (36.92556, 23.37341, 12.329903), (34.648544, 36.72671, 12.041008), (35.17742, 24.445683, 11.109284), (21.648666, 35.409485, 11.7626705), (25.857407, 21.648485, 11.822909), (33.982834, 36.09409, 11.530279), (40.44522, 22.616198, 11.900255), (40.069016, 34.34447, 11.711375), (26.323406, 23.386469, 10.468509), (28.585226, 34.586483, 10.909456), (31.898464, 23.046425, 12.485204), (40.354366, 36.313087, 12.138466), (32.800564, 22.241852, 10.456754), (24.486069, 35.781082, 10.729573), (33.05963, 24.484102, 12.437105), (31.455776, 36.18451, 11.161769), (33.894485, 22.877386, 10.981266), (27.072138, 34.316288, 10.896554), (24.42253, 22.256584, 11.215405), (35.666267, 34.431953, 12.532796), (22.84395, 21.773684, 11.302438), (39.93756, 35.051315, 11.508894), (35.179386, 23.172726, 12.510909), (32.91621, 34.639744, 11.730849)],
                20: [(28.20809, 29.279108, 10.363579), (27.727936, 27.781082, 9.032389), (29.204409, 24.237589, 8.869422), (42.19806, 30.814941, 9.94819), (44.27276, 27.36395, 9.877061), (35.638844, 28.593718, 9.651086), (36.714497, 30.65392, 8.7541485), (26.882181, 29.943169, 9.634423), (27.267862, 28.00673, 9.523193), (44.478485, 27.914774, 10.212388), (33.184616, 30.549028, 9.220272), (35.614124, 24.349127, 10.22385), (43.442574, 26.608774, 8.700981), (40.50488, 25.875172, 10.464646), (41.757294, 30.038397, 10.101319), (39.677727, 29.741312, 10.435337), (38.477955, 29.944155, 8.881884), (36.16595, 25.661118, 9.706731), (37.959347, 32.621315, 8.93574), (39.583546, 30.51462, 9.0831585), (43.3735, 27.055681, 9.247461), (36.45768, 31.531485, 10.237879), (42.632812, 31.40062, 9.083838), (35.774155, 24.70718, 9.233384), (41.120224, 30.37515, 9.1374235), (30.572334, 30.817553, 10.426442), (27.109776, 25.561844, 9.02909), (42.20774, 25.145824, 9.149097), (34.38829, 22.387894, 9.053862), (40.449013, 24.961, 9.458623), (44.046898, 29.370039, 9.129133), (34.62191, 33.258953, 9.77364), (38.640945, 32.3922, 8.823797), (26.832212, 26.048576, 9.805745), (38.725067, 26.700142, 8.729835), (32.798775, 28.477118, 9.017257), (31.902248, 27.078348, 9.351861), (42.642117, 27.425274, 9.944199), (36.131195, 28.83854, 8.732209), (32.173588, 22.576908, 8.738267), (26.930954, 28.552156, 9.274028), (41.249893, 29.952154, 10.026609), (34.354187, 23.150599, 10.12788), (30.304955, 31.851206, 10.321505), (27.67213, 30.564781, 10.254251), (30.845322, 25.464716, 9.748822), (41.65218, 30.239454, 10.48798), (34.191795, 24.419004, 10.023068), (26.901924, 29.938751, 8.850808), (42.23788, 28.836906, 9.565722), (32.86334, 24.123684, 9.806106), (34.963005, 28.616331, 9.2418585), (36.148663, 30.283371, 10.330298), (26.619518, 29.954245, 9.288529), (36.98264, 31.609726, 10.150779), (39.668816, 25.635874, 12.799458), (39.734306, 29.840628, 13.409029), (34.853863, 23.338106, 12.06431), (33.003197, 28.204268, 11.913793), (33.03757, 25.303461, 12.156892), (41.178688, 27.16665, 11.57923), (37.494354, 26.857689, 13.100715), (34.242752, 31.148369, 11.445873), (35.443302, 27.69373, 13.391204), (37.460304, 28.23787, 12.910032), (32.62082, 24.904596, 13.337724), (35.24964, 25.69957, 12.540341), (41.29917, 27.704384, 13.11401), (35.923767, 30.061705, 13.073547), (31.919973, 24.979633, 12.344439), (38.21871, 26.778017, 13.638249), (39.729004, 29.65892, 12.901316), (32.72487, 29.819782, 13.51037), (40.977345, 26.471931, 12.963174), (35.389168, 23.581373, 12.939879), (38.017906, 31.563662, 13.753183), (30.442232, 26.59958, 12.168947), (39.04883, 25.455421, 11.598654), (30.668472, 26.301304, 12.569874), (37.143284, 26.462387, 13.319664), (33.336933, 30.861677, 11.737201), (30.577677, 27.112091, 13.415943), (41.130207, 26.467598, 13.677971), (37.407524, 30.641783, 12.096407), (33.246254, 25.063162, 13.424696), (34.866196, 30.015097, 13.428625), (38.174767, 31.419533, 13.7242565), (33.686195, 26.626783, 12.686169), (35.579544, 27.049887, 13.726572), (31.417892, 29.803057, 12.75088), (35.84886, 26.447235, 12.692917), (42.981087, 26.36804, 12.046113), (39.71907, 29.574074, 13.357721), (32.600254, 27.86408, 11.859484), (38.74608, 26.783663, 13.270293), (37.64798, 29.46953, 13.048882), (33.112923, 30.23239, 11.651725), (29.832884, 21.5665, 10.651218), (37.576687, 34.19768, 10.92662), (37.557606, 22.68887, 10.549386), (39.630875, 34.49478, 11.972768), (43.77852, 22.455494, 11.729697), (44.65087, 33.810795, 10.792974), (31.644741, 20.005268, 12.052591), (32.0476, 35.125046, 10.670895), (43.311203, 21.850782, 11.837859), (35.152798, 34.992687, 10.13907), (40.46528, 20.283606, 12.2304325), (37.107937, 35.226093, 11.206128), (31.091139, 22.974234, 10.333581), (37.98176, 34.447437, 11.351233), (31.00619, 22.547476, 11.948471), (45.110954, 33.10479, 10.2362795), (36.279343, 20.752895, 10.81902), (37.290455, 34.17626, 11.422046), (40.819572, 20.49836, 10.498793), (41.547348, 34.096966, 10.529277), (37.238655, 23.150663, 12.065007), (40.88876, 35.55434, 11.48465), (38.892498, 21.586277, 12.261896), (32.40702, 35.716156, 11.737757), (42.978195, 21.901962, 12.072399), (40.70118, 35.255264, 11.7835045), (41.230053, 22.974236, 10.851781), (27.701298, 33.938038, 11.505167), (31.910038, 20.177038, 11.565406), (40.03546, 34.622643, 11.272776), (46.497856, 21.14475, 11.642752), (46.121647, 32.873024, 11.453872), (32.376038, 21.915022, 10.211005), (34.637856, 33.115036, 10.651953), (37.951096, 21.574978, 12.2277), (46.406998, 34.84164, 11.880962), (38.853195, 20.770405, 10.19925), (30.5387, 34.309635, 10.47207), (39.11226, 23.012655, 12.179602), (37.508408, 34.713062, 10.904265), (39.94712, 21.40594, 10.7237625), (33.12477, 32.84484, 10.6390505), (30.47516, 20.785137, 10.957902), (41.7189, 32.960506, 12.275292), (28.896582, 20.302237, 11.044934), (45.990196, 33.57987, 11.25139), (41.232018, 21.701279, 12.253406), (38.96884, 33.168297, 11.473346)],
            }
            float[] primvars:densityProxy = [0.45, 0.54216903, 0.45572183, 0.50582224, 0.48737338, 0.49534795, 0.5126087, 0.466558, 0.4829111, 0.50396246, 0.5471512, 0.532119, 0.4679044, 0.54951715, 0.5316025, 0.49418163, 0.5426879, 0.49341956, 0.5144186, 0.48226437, 0.52603775, 0.5056031, 0.51608765, 0.49193382, 0.4635764, 0.48304698, 0.4995324, 0.45003176, 0.46619058, 0.49201936, 0.5485082, 0.52234083, 0.47857016, 0.49180436, 0.47005978, 0.5075921, 0.5481521, 0.54205686, 0.49702767, 0.52682054, 0.5096654, 0.5434264, 0.49530822, 0.4715431, 0.51947147, 0.52959716, 0.47831905, 0.50139016, 0.46425304, 0.4614385, 0.48022, 0.4615891, 0.5311999, 0.5053893, 0.4904644, 0.93729, 0.89746714, 0.87249917, 0.8809342, 0.8674919, 0.86698097, 0.8582196, 0.9310897, 0.85166705, 0.8588056, 0.85775274, 0.90976185, 0.8741479, 0.88880694, 0.88281775, 0.88678503, 0.90073645, 0.86732674, 0.8528889, 0.8690269, 0.9094893, 0.8654123, 0.9192758, 0.86841613, 0.85441846, 0.92338794, 0.89314663, 0.85895324, 0.8777377, 0.8594074, 0.88763577, 0.89848095, 0.8857962, 0.89441395, 0.9428026, 0.93154144, 0.8641463, 0.90297204, 0.92373633, 0.9280942, 0.9251111, 0.9427919, 0.26462483, 0.2555773, 0.2989932, 0.27641386, 0.34329897, 0.25789365, 0.26655364, 0.29975754, 0.3393197, 0.28437406, 0.30724013, 0.32168683, 0.3445096, 0.27081493, 0.3141196, 0.2547064, 0.2531489, 0.2999409, 0.2956759, 0.29675785, 0.34163758, 0.2901592, 0.34951144, 0.27679443, 0.3262687, 0.34739178, 0.26066545, 0.25010556, 0.32313985, 0.28061318, 0.27092636, 0.34343714, 0.27697042, 0.2932993, 0.33143604, 0.32746568, 0.25184622, 0.30684027, 0.33157358, 0.26441437, 0.3307804, 0.3324847, 0.26961103, 0.2940598, 0.32742098, 0.32694933, 0.3365908, 0.2582927] (
                interpolation = "vertex"
            )
            color3f[] primvars:displayColor = [(0.76, 0.84, 0.88), (0.76, 0.84, 0.88), (0.76, 0.84, 0.88), (0.76, 0.84, 0.88), (0.76, 0.84, 0.88), (0.76, 0.84, 0.88), (0.76, 0.84, 0.88), (0.76, 0.84, 0.88), (0.76, 0.84, 0.88), (0.76, 0.84, 0.88), (0.76, 0.84, 0.88), (0.76, 0.84, 0.88), (0.76, 0.84, 0.88), (0.76, 0.84, 0.88), (0.76, 0.84, 0.88), (0.76, 0.84, 0.88), (0.76, 0.84, 0.88), (0.76, 0.84, 0.88), (0.76, 0.84, 0.88), (0.76, 0.84, 0.88), (0.76, 0.84, 0.88), (0.76, 0.84, 0.88), (0.76, 0.84, 0.88), (0.76, 0.84, 0.88), (0.76, 0.84, 0.88), (0.76, 0.84, 0.88), (0.76, 0.84, 0.88), (0.76, 0.84, 0.88), (0.76, 0.84, 0.88), (0.76, 0.84, 0.88), (0.76, 0.84, 0.88), (0.76, 0.84, 0.88), (0.76, 0.84, 0.88), (0.76, 0.84, 0.88), (0.76, 0.84, 0.88), (0.76, 0.84, 0.88), (0.76, 0.84, 0.88), (0.76, 0.84, 0.88), (0.76, 0.84, 0.88), (0.76, 0.84, 0.88), (0.76, 0.84, 0.88), (0.76, 0.84, 0.88), (0.76, 0.84, 0.88), (0.76, 0.84, 0.88), (0.76, 0.84, 0.88), (0.76, 0.84, 0.88), (0.76, 0.84, 0.88), (0.76, 0.84, 0.88), (0.76, 0.84, 0.88), (0.76, 0.84, 0.88), (0.76, 0.84, 0.88), (0.76, 0.84, 0.88), (0.76, 0.84, 0.88), (0.76, 0.84, 0.88), (0.76, 0.84, 0.88), (0.92, 0.95, 0.96), (0.92, 0.95, 0.96), (0.92, 0.95, 0.96), (0.92, 0.95, 0.96), (0.92, 0.95, 0.96), (0.92, 0.95, 0.96), (0.92, 0.95, 0.96), (0.92, 0.95, 0.96), (0.92, 0.95, 0.96), (0.92, 0.95, 0.96), (0.92, 0.95, 0.96), (0.92, 0.95, 0.96), (0.92, 0.95, 0.96), (0.92, 0.95, 0.96), (0.92, 0.95, 0.96), (0.92, 0.95, 0.96), (0.92, 0.95, 0.96), (0.92, 0.95, 0.96), (0.92, 0.95, 0.96), (0.92, 0.95, 0.96), (0.92, 0.95, 0.96), (0.92, 0.95, 0.96), (0.92, 0.95, 0.96), (0.92, 0.95, 0.96), (0.92, 0.95, 0.96), (0.92, 0.95, 0.96), (0.92, 0.95, 0.96), (0.92, 0.95, 0.96), (0.92, 0.95, 0.96), (0.92, 0.95, 0.96), (0.92, 0.95, 0.96), (0.92, 0.95, 0.96), (0.92, 0.95, 0.96), (0.92, 0.95, 0.96), (0.92, 0.95, 0.96), (0.92, 0.95, 0.96), (0.92, 0.95, 0.96), (0.92, 0.95, 0.96), (0.92, 0.95, 0.96), (0.92, 0.95, 0.96), (0.92, 0.95, 0.96), (0.92, 0.95, 0.96), (0.68, 0.78, 0.84), (0.68, 0.78, 0.84), (0.68, 0.78, 0.84), (0.68, 0.78, 0.84), (0.68, 0.78, 0.84), (0.68, 0.78, 0.84), (0.68, 0.78, 0.84), (0.68, 0.78, 0.84), (0.68, 0.78, 0.84), (0.68, 0.78, 0.84), (0.68, 0.78, 0.84), (0.68, 0.78, 0.84), (0.68, 0.78, 0.84), (0.68, 0.78, 0.84), (0.68, 0.78, 0.84), (0.68, 0.78, 0.84), (0.68, 0.78, 0.84), (0.68, 0.78, 0.84), (0.68, 0.78, 0.84), (0.68, 0.78, 0.84), (0.68, 0.78, 0.84), (0.68, 0.78, 0.84), (0.68, 0.78, 0.84), (0.68, 0.78, 0.84), (0.68, 0.78, 0.84), (0.68, 0.78, 0.84), (0.68, 0.78, 0.84), (0.68, 0.78, 0.84), (0.68, 0.78, 0.84), (0.68, 0.78, 0.84), (0.68, 0.78, 0.84), (0.68, 0.78, 0.84), (0.68, 0.78, 0.84), (0.68, 0.78, 0.84), (0.68, 0.78, 0.84), (0.68, 0.78, 0.84), (0.68, 0.78, 0.84), (0.68, 0.78, 0.84), (0.68, 0.78, 0.84), (0.68, 0.78, 0.84), (0.68, 0.78, 0.84), (0.68, 0.78, 0.84), (0.68, 0.78, 0.84), (0.68, 0.78, 0.84), (0.68, 0.78, 0.84), (0.68, 0.78, 0.84), (0.68, 0.78, 0.84), (0.68, 0.78, 0.84)]
            float[] widths = [2.1656501, 2.2119086, 2.0034013, 1.7418803, 2.3155627, 1.759551, 2.1639345, 2.3402917, 1.9781629, 2.4078097, 1.7702235, 2.0865135, 1.9097174, 2.0974245, 1.9697756, 2.4580405, 1.7598934, 2.147425, 2.3437152, 1.969795, 2.584865, 2.3418357, 1.9582776, 1.7733985, 2.3012838, 2.1837246, 1.8541353, 1.8898007, 2.6501358, 1.8038397, 2.4045794, 1.9934354, 1.9283963, 1.9802194, 1.9691939, 2.0687854, 2.5909402, 2.2844403, 2.6102126, 2.3361845, 2.6993575, 2.600196, 2.6150026, 2.5711012, 2.2728076, 2.308867, 2.5797918, 2.280953, 2.45021, 1.9302217, 2.6204643, 2.3781369, 2.3599901, 2.365899, 2.614221, 1.7848382, 2.2638483, 1.6522161, 1.8725864, 2.2552066, 1.5283372, 2.0135238, 1.622293, 1.7136681, 1.9018327, 2.3626146, 1.6608175, 1.661189, 1.9683807, 2.212739, 2.1501396, 2.3189688, 2.2170906, 1.684405, 2.1458957, 2.3796227, 2.3189907, 1.8968111, 1.5255693, 1.6556066, 1.633808, 2.1204343, 1.5774212, 2.155959, 2.003974, 2.3104725, 1.9718033, 1.9528567, 1.964416, 1.9419364, 1.8723967, 1.9258454, 2.3105, 2.0561054, 1.5205073, 1.7898741, 2.1578045, 0.8384102, 0.98938143, 1.1419204, 1.1281978, 1.2673558, 1.3459369, 0.79375255, 0.76791114, 0.7882023, 0.84065384, 0.78078717, 1.1799779, 0.7262051, 0.8025884, 1.393211, 1.3660464, 1.0268719, 0.7092722, 1.0177656, 0.81555367, 1.2611943, 0.9831569, 1.2633749, 1.2445916, 1.315889, 0.98402184, 1.0281882, 1.1368142, 0.9364709, 0.97271585, 1.2332178, 1.2171564, 0.83681226, 1.3339503, 1.097585, 0.7533372, 1.3511077, 1.0468646, 0.9944927, 0.9000253, 1.2016213, 0.7299418, 1.3282795, 1.3611201, 1.034326, 1.3560897, 1.2716873, 1.018982]
        }
    }

    def Xform "RadiativeCues" (
        kind = "group"
    )
    {
        def Xform "AnimatedCloudShadow" (
            kind = "group"
        )
        {
            float[] primvars:shadowStrength = [0.85] (
                interpolation = "constant"
            )

            def Mesh "CloudShadowFootprint"
            {
                int[] faceVertexCounts = [3, 3, 3, 3, 3, 3, 3, 3, 3, 3, 3, 3, 3, 3, 3, 3, 3, 3, 3, 3, 3, 3, 3, 3, 3, 3, 3, 3, 3, 3, 3, 3, 3, 3, 3, 3, 3, 3, 3, 3, 3, 3, 3, 3, 3, 3, 3, 3]
                int[] faceVertexIndices = [0, 1, 2, 0, 2, 3, 0, 3, 4, 0, 4, 5, 0, 5, 6, 0, 6, 7, 0, 7, 8, 0, 8, 9, 0, 9, 10, 0, 10, 11, 0, 11, 12, 0, 12, 13, 0, 13, 14, 0, 14, 15, 0, 15, 16, 0, 16, 17, 0, 17, 18, 0, 18, 19, 0, 19, 20, 0, 20, 21, 0, 21, 22, 0, 22, 23, 0, 23, 24, 0, 24, 25, 0, 25, 26, 0, 26, 27, 0, 27, 28, 0, 28, 29, 0, 29, 30, 0, 30, 31, 0, 31, 32, 0, 32, 33, 0, 33, 34, 0, 34, 35, 0, 35, 36, 0, 36, 37, 0, 37, 38, 0, 38, 39, 0, 39, 40, 0, 40, 41, 0, 41, 42, 0, 42, 43, 0, 43, 44, 0, 44, 45, 0, 45, 46, 0, 46, 47, 0, 47, 48, 0, 48, 1]
                rel material:binding = </World/Materials/CloudShadow>
                point3f[] points.timeSamples = {
                    1: [(17, 18.5, 0.34), (27.92, 18.5, 0.34), (27.686047, 19.062738, 0.34), (26.701355, 19.539787, 0.34), (26.7526, 20.115864, 0.34), (26.413422, 20.673937, 0.34), (25.130304, 20.995441, 0.34), (24.151566, 21.360626, 0.34), (23.954458, 22.12529, 0.34), (21.872856, 21.876013, 0.34), (20.982826, 22.346157, 0.34), (19.959963, 22.918692, 0.34), (18.230364, 22.238218, 0.34), (17, 22.873316, 0.34), (15.580817, 22.811905, 0.34), (14.450152, 22.306465, 0.34), (12.878045, 22.48051, 0.34), (11.634735, 22.217165, 0.34), (10.759939, 21.752882, 0.34), (9.763607, 21.394558, 0.34), (8.073252, 21.239895, 0.34), (8.427667, 20.479696, 0.34), (7.4785714, 20.077562, 0.34), (5.9015374, 19.68953, 0.34), (7.663049, 18.991693, 0.34), (6.1196594, 18.5, 0.34), (6.089132, 17.925423, 0.34), (7.668663, 17.49987, 0.34), (6.8835764, 16.823856, 0.34), (7.774774, 16.369526, 0.34), (8.920659, 16.0202, 0.34), (9.637649, 15.555059, 0.34), (10.273169, 14.993369, 0.34), (11.979055, 15.021387, 0.34), (13.0767145, 14.711341, 0.34), (14.030957, 14.067753, 0.34), (15.762431, 14.739892, 0.34), (17, 14.1886015, 0.34), (18.45502, 14.079206, 0.34), (19.458557, 14.829815, 0.34), (21.236258, 14.409108, 0.34), (22.321833, 14.812926, 0.34), (23.121948, 15.308689, 0.34), (24.51358, 15.494568, 0.34), (25.60621, 15.858489, 0.34), (25.788626, 16.470354, 0.34), (26.48217, 16.928942, 0.34), (27.991236, 17.321962, 0.34), (26.521719, 17.998577, 0.34)],
                    5: [(20.486317, 19.475794, 0.34), (31.406317, 19.475794, 0.34), (31.172363, 20.038532, 0.34), (30.187672, 20.515581, 0.34), (30.238916, 21.091658, 0.34), (29.899738, 21.64973, 0.34), (28.616621, 21.971235, 0.34), (27.637882, 22.33642, 0.34), (27.440775, 23.101084, 0.34), (25.359173, 22.851807, 0.34), (24.469143, 23.32195, 0.34), (23.44628, 23.894485, 0.34), (21.71668, 23.214012, 0.34), (20.486317, 23.84911, 0.34), (19.067135, 23.787699, 0.34), (17.936468, 23.282259, 0.34), (16.364363, 23.456305, 0.34), (15.121052, 23.192959, 0.34), (14.246256, 22.728676, 0.34), (13.249924, 22.370352, 0.34), (11.559568, 22.215689, 0.34), (11.913983, 21.45549, 0.34), (10.964888, 21.053356, 0.34), (9.387854, 20.665323, 0.34), (11.149366, 19.967487, 0.34), (9.605976, 19.475794, 0.34), (9.575448, 18.901217, 0.34), (11.15498, 18.475664, 0.34), (10.369893, 17.79965, 0.34), (11.261091, 17.34532, 0.34), (12.406976, 16.995995, 0.34), (13.123965, 16.530853, 0.34), (13.759485, 15.969163, 0.34), (15.465372, 15.997181, 0.34), (16.563032, 15.687135, 0.34), (17.517273, 15.043547, 0.34), (19.248747, 15.715686, 0.34), (20.486317, 15.164395, 0.34), (21.941338, 15.055, 0.34), (22.944874, 15.805609, 0.34), (24.722574, 15.384902, 0.34), (25.80815, 15.78872, 0.34), (26.608265, 16.284483, 0.34), (27.999897, 16.470362, 0.34), (29.092527, 16.834282, 0.34), (29.274942, 17.446148, 0.34), (29.968487, 17.904736, 0.34), (31.477552, 18.297756, 0.34), (30.008036, 18.974371, 0.34)],
                    10: [(24.844212, 19.924747, 0.34), (35.76421, 19.924747, 0.34), (35.53026, 20.487486, 0.34), (34.545567, 20.964535, 0.34), (34.59681, 21.540611, 0.34), (34.257633, 22.098684, 0.34), (32.974514, 22.420189, 0.34), (31.995777, 22.785374, 0.34), (31.79867, 23.550037, 0.34), (29.717068, 23.30076, 0.34), (28.827038, 23.770905, 0.34), (27.804174, 24.34344, 0.34), (26.074575, 23.662966, 0.34), (24.844212, 24.298063, 0.34), (23.42503, 24.236652, 0.34), (22.294363, 23.731213, 0.34), (20.722258, 23.905258, 0.34), (19.478947, 23.641912, 0.34), (18.60415, 23.17763, 0.34), (17.607819, 22.819305, 0.34), (15.917463, 22.664642, 0.34), (16.271877, 21.904444, 0.34), (15.3227825, 21.50231, 0.34), (13.7457485, 21.114277, 0.34), (15.507261, 20.416441, 0.34), (13.963871, 19.924747, 0.34), (13.933343, 19.35017, 0.34), (15.512875, 18.924618, 0.34), (14.727788, 18.248604, 0.34), (15.618986, 17.794273, 0.34), (16.76487, 17.444948, 0.34), (17.48186, 16.979807, 0.34), (18.11738, 16.418116, 0.34), (19.823267, 16.446135, 0.34), (20.920927, 16.136087, 0.34), (21.875168, 15.4925, 0.34), (23.606642, 16.164639, 0.34), (24.844212, 15.613349, 0.34), (26.299232, 15.503954, 0.34), (27.302769, 16.254562, 0.34), (29.08047, 15.833856, 0.34), (30.166044, 16.237675, 0.34), (30.96616, 16.733437, 0.34), (32.35779, 16.919315, 0.34), (33.450424, 17.283236, 0.34), (33.63284, 17.895102, 0.34), (34.32638, 18.35369, 0.34), (35.83545, 18.74671, 0.34), (34.365932, 19.423325, 0.34)],
                    15: [(29.202105, 19.087236, 0.34), (40.122105, 19.087236, 0.34), (39.888153, 19.649975, 0.34), (38.903458, 20.127024, 0.34), (38.954704, 20.7031, 0.34), (38.615524, 21.261173, 0.34), (37.33241, 21.582678, 0.34), (36.35367, 21.947863, 0.34), (36.156563, 22.712526, 0.34), (34.07496, 22.46325, 0.34), (33.18493, 22.933393, 0.34), (32.162067, 23.505928, 0.34), (30.432468, 22.825455, 0.34), (29.202105, 23.460552, 0.34), (27.782923, 23.399141, 0.34), (26.652256, 22.893702, 0.34), (25.08015, 23.067747, 0.34), (23.83684, 22.804401, 0.34), (22.962044, 22.340118, 0.34), (21.965712, 21.981794, 0.34), (20.275356, 21.827131, 0.34), (20.62977, 21.066933, 0.34), (19.680676, 20.664799, 0.34), (18.103642, 20.276766, 0.34), (19.865154, 19.57893, 0.34), (18.321764, 19.087236, 0.34), (18.291237, 18.51266, 0.34), (19.870768, 18.087107, 0.34), (19.085682, 17.411093, 0.34), (19.97688, 16.956762, 0.34), (21.122763, 16.607437, 0.34), (21.839752, 16.142296, 0.34), (22.475273, 15.5806055, 0.34), (24.18116, 15.6086235, 0.34), (25.27882, 15.298577, 0.34), (26.23306, 14.654989, 0.34), (27.964535, 15.327128, 0.34), (29.202105, 14.775838, 0.34), (30.657125, 14.666443, 0.34), (31.660662, 15.417051, 0.34), (33.438362, 14.996345, 0.34), (34.523937, 15.400163, 0.34), (35.324055, 15.8959255, 0.34), (36.715687, 16.081804, 0.34), (37.808315, 16.445724, 0.34), (37.99073, 17.05759, 0.34), (38.684273, 17.516178, 0.34), (40.19334, 17.909199, 0.34), (38.723824, 18.585814, 0.34)],
                    20: [(33.56, 17.3, 0.34), (44.48, 17.3, 0.34), (44.246048, 17.862738, 0.34), (43.261356, 18.339787, 0.34), (43.3126, 18.915863, 0.34), (42.973423, 19.473936, 0.34), (41.690304, 19.79544, 0.34), (40.711567, 20.160625, 0.34), (40.514458, 20.92529, 0.34), (38.432858, 20.676012, 0.34), (37.542828, 21.146156, 0.34), (36.519962, 21.71869, 0.34), (34.790367, 21.038218, 0.34), (33.56, 21.673315, 0.34), (32.14082, 21.611904, 0.34), (31.010153, 21.106464, 0.34), (29.438047, 21.28051, 0.34), (28.194736, 21.017164, 0.34), (27.31994, 20.552881, 0.34), (26.323608, 20.194557, 0.34), (24.633253, 20.039894, 0.34), (24.987667, 19.279696, 0.34), (24.038572, 18.877562, 0.34), (22.461538, 18.489529, 0.34), (24.223051, 17.791693, 0.34), (22.67966, 17.3, 0.34), (22.649134, 16.725422, 0.34), (24.228664, 16.29987, 0.34), (23.443579, 15.623856, 0.34), (24.334776, 15.169524, 0.34), (25.48066, 14.820201, 0.34), (26.197649, 14.355059, 0.34), (26.83317, 13.793368, 0.34), (28.539057, 13.821386, 0.34), (29.636717, 13.51134, 0.34), (30.590958, 12.867752, 0.34), (32.322433, 13.539891, 0.34), (33.56, 12.988601, 0.34), (35.015022, 12.879206, 0.34), (36.01856, 13.629814, 0.34), (37.796257, 13.209107, 0.34), (38.881832, 13.612926, 0.34), (39.68195, 14.108688, 0.34), (41.07358, 14.294567, 0.34), (42.166214, 14.658488, 0.34), (42.34863, 15.270353, 0.34), (43.04217, 15.728942, 0.34), (44.55124, 16.121962, 0.34), (43.081722, 16.798576, 0.34)],
                }
                color3f[] primvars:displayColor = [(0.006, 0.01, 0.01)]
            }
        }
    }

    def Xform "Lighting" (
        kind = "group"
    )
    {
        def DistantLight "PolarLowSun"
        {
            float inputs:angle = 0.65
            color3f inputs:color = (1, 0.88, 0.72)
            float inputs:intensity = 350
            float3 xformOp:rotateXYZ = (-45, 0, -35)
            uniform token[] xformOpOrder = ["xformOp:rotateXYZ"]
        }

        def DomeLight "SkyFill"
        {
            color3f inputs:color = (0.64, 0.72, 0.82)
            float inputs:intensity = 45
        }
    }

    def Xform "Camera"
    {
        def Camera "MainCamera"
        {
            float2 clippingRange = (0.1, 100000)
            float focalLength = 28
            float horizontalAperture = 24
            float verticalAperture = 18
            matrix4d xformOp:transform = ( (0.8701720430352298, 0.49274802436934695, 2.775557561562892e-17, 0), (-0.1675996982277085, 0.29597393516808096, 0.940377461902986, -0), (0.4633691365141571, -0.8182901772484051, 0.34013266403698766, 0), (72, -55.000000000000014, 41.99999999999999, 1) )
            uniform token[] xformOpOrder = ["xformOp:transform"]
        }
    }

    def Scope "RenderNotes"
    {
        custom string description = "Week 5 renderer-stable Arctic cloud scene: colored albedo surface, point cloud layers, time-sampled cloud motion, and animated shadow/cooling proxy. Designed for usdrecord/Storm."
        custom string renderCommand = "usdrecord --camera /World/Camera/MainCamera --frames 1:20 --imageWidth 1280 assets/week5/realistic_arctic_cloud_scene.usda renders/week5/cloud_realistic_###.png"
    }
}

