#usda 1.0
(
    defaultPrim = "Cloud_Pixels"
    metersPerUnit = 1000
    upAxis = "Z"
)

def Points "Cloud_Pixels"
{
    point3f[] points = [(-4003.253, 3366.2783, 3651.5444), (-4006.776, 3362.0842, 3651.5444), (-4010.2944, 3357.8865, 3651.5444), (-4000.1262, 3366.0332, 3655.1953), (-4003.649, 3361.8425, 3655.1953), (-4007.1672, 3357.648, 3655.1953), (-3999.347, 3362.9937, 3658.844), (-4004.0386, 3357.4062, 3658.844), (-4007.5522, 3353.2114, 3658.844), (-3998.564, 3359.9534, 3662.4912), (-4000.9087, 3357.161, 3662.4912), (-4004.422, 3352.9692, 3662.4912), (-3994.2598, 3361.097, 3666.1365), (-4000.1199, 3354.1204, 3666.1365), (-4003.0454, 3350.6284, 3666.1365)]
    float[] widths = [5, 5, 5, 5, 5, 5, 5, 5, 5, 5, 5, 5, 5, 5, 5]
}

