#usda 1.0
(
    defaultPrim = "OCO2_Footprints"
    metersPerUnit = 1000
    upAxis = "Z"
)

def Points "OCO2_Footprints"
{
    point3f[] points = [(-3998.7603, 3363.692, 3646.6255), (-3999.934, 3362.296, 3646.6255), (-4001.1074, 3360.8994, 3646.6255), (-4002.2805, 3359.5024, 3646.6255), (-4003.453, 3358.1052, 3646.6255), (-4004.6248, 3356.7075, 3646.6255), (-4005.7964, 3355.3096, 3646.6255), (-4006.9673, 3353.9111, 3646.6255), (-3994.3718, 3360.0005, 3654.829), (-3995.5444, 3358.606, 3654.829), (-3996.7166, 3357.211, 3654.829), (-3997.8882, 3355.8157, 3654.829), (-3999.0593, 3354.42, 3654.829), (-4000.23, 3353.024, 3654.829), (-4001.4001, 3351.6272, 3654.829), (-4002.5698, 3350.2302, 3654.829), (-3989.9734, 3356.3008, 3663.0234), (-3991.1448, 3354.9077, 3663.0234), (-3992.3157, 3353.5144, 3663.0234), (-3993.486, 3352.1206, 3663.0234), (-3994.6558, 3350.7263, 3663.0234), (-3995.8252, 3349.3318, 3663.0234), (-3996.9941, 3347.9368, 3663.0234), (-3998.1626, 3346.5413, 3663.0234)]
    float[] primvars:xco2 = [410.2, 411, 412.4, 413.1, 412.8, 411.5, 410.9, 410.3, 411.7, 413.2, 415, 416.3, 415.8, 414.1, 412.6, 411.2, 409.8, 410.5, 411.9, 412.2, 411.6, 410.8, 409.9, 409.4] (
        interpolation = "vertex"
    )
    float[] widths = [2, 2, 2, 2, 2, 2, 2, 2, 2, 2, 2, 2, 2, 2, 2, 2, 2, 2, 2, 2, 2, 2, 2, 2]
}

